<svg width="22" height="20" viewBox="0 0 22 20" fill="none" xmlns="http://www.w3.org/2000/svg">
<path d="M7.0998 0C6.06546 0 5.07348 0.410892 4.34209 1.14228C3.6107 1.87368 3.1998 2.86566 3.1998 3.9C3.1998 4.93434 3.6107 5.92632 4.34209 6.65772C5.07348 7.38911 6.06546 7.8 7.0998 7.8C8.13415 7.8 9.12613 7.38911 9.85752 6.65772C10.5889 5.92632 10.9998 4.93434 10.9998 3.9C10.9998 2.86566 10.5889 1.87368 9.85752 1.14228C9.12613 0.410892 8.13415 0 7.0998 0ZM0.799805 11.4C0.799805 10.7635 1.05266 10.153 1.50275 9.70294C1.95284 9.25286 2.56329 9 3.1998 9H10.9998C11.4177 8.99966 11.8285 9.10845 12.1914 9.3156C11.4426 9.93435 10.8398 10.711 10.4264 11.59C10.0129 12.469 9.79895 13.4286 9.7998 14.4C9.8006 14.876 9.84901 15.3372 9.94501 15.7836C9.1722 16.044 8.235 16.2 7.0998 16.2C4.0842 16.2 2.4594 15.096 1.6182 13.8792C1.17528 13.2339 0.899062 12.4889 0.814205 11.7108C0.807359 11.641 0.802557 11.5709 0.799805 11.5008V11.4ZM19.3998 4.8C19.3998 5.59565 19.0837 6.35871 18.5211 6.92132C17.9585 7.48393 17.1955 7.8 16.3998 7.8C15.6042 7.8 14.8411 7.48393 14.2785 6.92132C13.7159 6.35871 13.3998 5.59565 13.3998 4.8C13.3998 4.00435 13.7159 3.24129 14.2785 2.67868C14.8411 2.11607 15.6042 1.8 16.3998 1.8C17.1955 1.8 17.9585 2.11607 18.5211 2.67868C19.0837 3.24129 19.3998 4.00435 19.3998 4.8ZM21.7998 14.4C21.7998 15.8322 21.2309 17.2057 20.2182 18.2184C19.2055 19.2311 17.832 19.8 16.3998 19.8C14.9676 19.8 13.5941 19.2311 12.5814 18.2184C11.5687 17.2057 10.9998 15.8322 10.9998 14.4C10.9998 12.9678 11.5687 11.5943 12.5814 10.5816C13.5941 9.56893 14.9676 9 16.3998 9C17.832 9 19.2055 9.56893 20.2182 10.5816C21.2309 11.5943 21.7998 12.9678 21.7998 14.4ZM19.3986 13.0704H17.5446L16.971 11.2332C16.9363 11.1083 16.8617 10.9983 16.7586 10.9198C16.6554 10.8414 16.5294 10.799 16.3998 10.799C16.2702 10.799 16.1442 10.8414 16.041 10.9198C15.9379 10.9983 15.8633 11.1083 15.8286 11.2332L15.2562 13.0704H13.3998C12.819 13.0704 12.5766 13.8468 13.047 14.2032L14.547 15.3396L13.9746 17.178C13.7946 17.754 14.4282 18.234 14.8986 17.8776L16.3986 16.7412L17.8986 17.8776C18.369 18.234 19.0026 17.754 18.8226 17.178L18.2502 15.3396L19.7502 14.2032C20.2206 13.8468 19.9782 13.0704 19.3974 13.0704" fill="#787878"/>
</svg>
