<svg width="18" height="24" viewBox="0 0 18 24" fill="none" xmlns="http://www.w3.org/2000/svg">
<path fill-rule="evenodd" clip-rule="evenodd" d="M8.61268 17.9531H6.06118C5.98468 17.9531 5.91943 18.0068 5.91943 18.0701V20.6486C5.91943 20.712 5.98468 20.766 6.06118 20.766H8.61268C8.68956 20.766 8.75481 20.712 8.75481 20.6486V18.0701C8.75481 18.0068 8.68956 17.9531 8.61268 17.9531ZM6.45118 13.7344H6.09681C6.0736 13.7342 6.05059 13.7387 6.0291 13.7474C6.00761 13.7562 5.98807 13.7691 5.97159 13.7855C5.95511 13.8018 5.94201 13.8212 5.93306 13.8427C5.92411 13.8641 5.91948 13.887 5.91943 13.9103V14.9651C5.91943 15.0619 5.99893 15.141 6.09681 15.141H6.45118C6.54868 15.141 6.62818 15.0619 6.62818 14.9651V13.9103C6.62813 13.8871 6.62351 13.8641 6.61459 13.8427C6.60566 13.8214 6.5926 13.8019 6.57616 13.7856C6.55972 13.7693 6.54022 13.7563 6.51877 13.7475C6.49733 13.7388 6.47436 13.7343 6.45118 13.7344ZM7.51393 13.7344H7.15956C7.06206 13.7344 6.98256 13.8131 6.98256 13.9103V14.9651C6.98256 15.0619 7.06206 15.141 7.15956 15.141H7.51393C7.53714 15.1412 7.56015 15.1367 7.58164 15.1279C7.60313 15.1192 7.62268 15.1063 7.63916 15.0899C7.65564 15.0736 7.66873 15.0541 7.67768 15.0327C7.68663 15.0113 7.69126 14.9883 7.69131 14.9651V13.9103C7.69126 13.887 7.68663 13.8641 7.67768 13.8427C7.66873 13.8212 7.65564 13.8018 7.63916 13.7855C7.62268 13.7691 7.60313 13.7562 7.58164 13.7474C7.56015 13.7387 7.53714 13.7342 7.51393 13.7344ZM8.57743 13.7344H8.22306C8.19985 13.7342 8.17684 13.7387 8.15535 13.7474C8.13386 13.7562 8.11432 13.7691 8.09784 13.7855C8.08136 13.8018 8.06826 13.8212 8.05931 13.8427C8.05036 13.8641 8.04573 13.887 8.04568 13.9103V14.9651C8.04568 15.0619 8.12518 15.141 8.22306 15.141H8.57743C8.67493 15.141 8.75481 15.0619 8.75481 14.9651V13.9103C8.75476 13.887 8.75013 13.8641 8.74118 13.8427C8.73223 13.8212 8.71914 13.8018 8.70266 13.7855C8.68618 13.7691 8.66663 13.7562 8.64514 13.7474C8.62365 13.7387 8.60064 13.7342 8.57743 13.7344Z" fill="#787878"/>
<path fill-rule="evenodd" clip-rule="evenodd" d="M14.9739 6.59775V7.63387C15.5439 7.63387 16.0085 8.08913 16.0179 8.652L14.4515 9.68812V9.96525C14.4515 10.8772 15.1332 11.6336 16.0182 11.76V19.1737C16.0182 19.7449 15.5495 20.2099 14.9739 20.2099C14.3982 20.2099 13.9295 19.7453 13.9295 19.1737C13.9295 18.1875 13.2305 17.3614 12.2982 17.1532V11.3205H13.3824V9.89062C13.3818 9.69761 13.3046 9.5127 13.1679 9.37647C13.0312 9.24023 12.846 9.16377 12.653 9.16388H11.6746C10.6584 8.61488 9.41336 8.25075 8.04611 8.157V6.99675C9.46586 6.6765 10.5267 5.41913 10.5267 3.91388C10.5264 2.16638 9.09836 0.75 7.33661 0.75C5.57486 0.75 4.14761 2.16637 4.14761 3.91425C4.14761 5.41987 5.20811 6.67725 6.62786 6.99713V8.15738C5.26099 8.25113 4.01561 8.61487 2.99936 9.16425H2.02136C1.82838 9.16415 1.64324 9.24061 1.50657 9.37686C1.3699 9.51311 1.29286 9.69802 1.29236 9.891V11.3209H2.37611V21.0938H2.02136C1.82838 21.0937 1.64324 21.1701 1.50657 21.3064C1.3699 21.4426 1.29286 21.6275 1.29236 21.8205V21.9007C1.18456 21.9652 1.09526 22.0564 1.03316 22.1655C0.971061 22.2747 0.938274 22.398 0.937988 22.5236V23.25H13.7371V22.5233C13.7371 22.2589 13.5946 22.0275 13.3827 21.9004V21.8201C13.3821 21.6271 13.305 21.4422 13.1683 21.306C13.0316 21.1697 12.8464 21.0933 12.6534 21.0934H12.299V18.2464C12.4738 18.3304 12.6215 18.4619 12.7251 18.6258C12.8288 18.7897 12.8844 18.9794 12.8855 19.1734C12.8855 20.316 13.8226 21.2456 14.9742 21.2456C16.1259 21.2456 17.063 20.316 17.063 19.1734V8.66962C17.0626 7.527 16.1255 6.59775 14.9739 6.59775ZM4.50199 3.91425C4.50199 2.36062 5.77136 1.10175 7.33699 1.10175C8.90299 1.10175 10.1724 2.36062 10.1724 3.91425C10.1724 5.46788 8.90299 6.72675 7.33699 6.72675C5.77136 6.72675 4.50199 5.46712 4.50199 3.91425ZM1.66699 10.9455V9.89062C1.66699 9.69713 1.82636 9.53888 2.02099 9.53888H12.6522C12.8472 9.53888 13.0066 9.69713 13.0066 9.89062V10.9455H1.66699ZM8.75486 15.4924H5.91949C5.82592 15.4925 5.73613 15.4555 5.66972 15.3896C5.60332 15.3237 5.56571 15.2342 5.56511 15.1406V14.5151C5.45817 14.4543 5.36912 14.3663 5.30692 14.2601C5.24471 14.154 5.21154 14.0333 5.21074 13.9103V12.1759C5.21222 11.9888 5.2876 11.8099 5.42044 11.6782C5.55327 11.5465 5.7328 11.4726 5.91986 11.4727H8.75524C9.14486 11.4727 9.46361 11.7893 9.46361 12.1759V13.9103C9.46361 14.1683 9.31961 14.3929 9.10961 14.5151V15.1406C9.10872 15.2342 9.07097 15.3236 9.00455 15.3894C8.93812 15.4553 8.8484 15.4923 8.75486 15.4924ZM9.10886 16.1955V16.8986C9.10827 16.9921 9.07071 17.0816 9.00439 17.1475C8.93806 17.2134 8.84836 17.2504 8.75486 17.2504H5.91949C5.82592 17.2505 5.73613 17.2135 5.66972 17.1476C5.60332 17.0817 5.56571 16.9922 5.56511 16.8986V16.1955C5.56511 16.002 5.72486 15.8438 5.91949 15.8438H8.75486C8.94949 15.8438 9.10886 16.002 9.10886 16.1955ZM12.6526 21.4688C12.8476 21.4688 13.007 21.627 13.007 21.8205V22.1722C13.202 22.1722 13.3614 22.3305 13.3614 22.524V22.875H1.31261V22.5233C1.31261 22.3298 1.47236 22.1715 1.66699 22.1715V21.8197C1.66699 21.6263 1.82636 21.468 2.02099 21.468H12.6526V21.4688ZM5.93899 21.0938C5.72599 21.0409 5.56511 20.8661 5.56511 20.6483V18.0697C5.56511 17.8114 5.78786 17.6014 6.06124 17.6014H8.61274C8.88649 17.6014 9.10886 17.8114 9.10886 18.0697V20.6483C9.10886 20.8657 8.94836 21.0409 8.73536 21.0938H5.93899ZM16.0182 10.6972C15.9069 10.6584 15.8058 10.5947 15.7226 10.5111C15.6394 10.4275 15.5762 10.3262 15.5379 10.2146L16.0182 9.89625V10.6972Z" fill="#787878"/>
<path fill-rule="evenodd" clip-rule="evenodd" d="M7.48787 5.85523L7.66075 5.95423L8.07475 6.19198V5.24211L7.66075 5.47948L7.48787 5.57886C7.47956 5.55998 7.46605 5.54386 7.44892 5.53237C7.43178 5.52088 7.41174 5.51451 7.39112 5.51398H7.28275C7.26208 5.51411 7.24191 5.52033 7.22477 5.53187C7.20763 5.54342 7.19427 5.55976 7.18637 5.57886L7.01312 5.47948L6.59912 5.24211V6.19198L7.01312 5.95423L7.18637 5.85523C7.19427 5.87433 7.20763 5.89067 7.22477 5.90221C7.24191 5.91375 7.26208 5.91998 7.28275 5.92011H7.39112C7.41174 5.91958 7.43178 5.9132 7.44892 5.90171C7.46605 5.89023 7.47956 5.87411 7.48787 5.85523ZM7.80925 4.49998C7.93112 4.40173 7.99675 4.26336 7.98175 4.13623C7.91237 4.24498 7.816 4.32373 7.70387 4.37811C7.59175 4.43248 7.46462 4.45948 7.33712 4.45986C7.21038 4.46001 7.08516 4.43222 6.97037 4.37848C6.85659 4.32565 6.76011 4.24165 6.69212 4.13623C6.6775 4.26336 6.74312 4.40173 6.865 4.49998C6.98575 4.59936 7.16125 4.65748 7.33712 4.65711C7.51262 4.65786 7.6885 4.59973 7.80925 4.49998Z" fill="#787878"/>
<path fill-rule="evenodd" clip-rule="evenodd" d="M9.15854 3.45784C9.15804 3.28759 9.13579 3.12434 9.09179 2.96809C9.1042 2.95485 9.11848 2.94348 9.13416 2.93434C9.18029 2.90697 9.17241 2.93247 9.17241 2.86722V2.83272C9.17241 2.80609 9.16941 2.80084 9.15516 2.79372C9.10953 2.76984 9.06118 2.75158 9.01116 2.73934C8.87077 2.41166 8.63731 2.13239 8.33971 1.93613C8.04211 1.73987 7.69346 1.63525 7.33697 1.63525C6.98049 1.63525 6.63184 1.73987 6.33424 1.93613C6.03664 2.13239 5.80318 2.41166 5.66279 2.73934C5.61265 2.75121 5.56425 2.76948 5.51879 2.79372C5.50454 2.80122 5.50154 2.80609 5.50154 2.83272V2.86759C5.50154 2.93284 5.49329 2.90697 5.54016 2.93472C5.55516 2.94347 5.56904 2.95472 5.58179 2.96847C5.5125 3.2188 5.49756 3.48106 5.53796 3.73764C5.57837 3.99423 5.67318 4.2392 5.81605 4.45613C5.95892 4.67305 6.14653 4.85691 6.3663 4.99537C6.58607 5.13382 6.83291 5.22367 7.09026 5.25888C7.34761 5.29409 7.60951 5.27385 7.8584 5.19952C8.10728 5.12519 8.33739 4.99848 8.53327 4.8279C8.72916 4.65733 8.8863 4.44682 8.99414 4.21052C9.10198 3.97422 9.15803 3.71759 9.15854 3.45784ZM7.33716 1.85134C7.62774 1.85123 7.9129 1.93 8.16221 2.07926C8.41153 2.22852 8.61564 2.44266 8.75279 2.69884C8.55456 2.68191 8.35531 2.68078 8.15691 2.69547C7.93116 2.71534 7.74291 2.76597 7.58916 2.84472C7.44479 2.91634 7.22841 2.91634 7.08441 2.84472C6.93029 2.76559 6.74204 2.71497 6.51666 2.69547C6.31814 2.68076 6.11876 2.68189 5.92041 2.69884C6.05796 2.44276 6.26233 2.22873 6.51179 2.0795C6.76124 1.93028 7.04648 1.85143 7.33716 1.85134ZM5.73066 3.45784L5.73141 3.42147C5.78766 3.63597 5.91441 3.77509 6.10454 3.84672C6.30987 3.92304 6.53622 3.9205 6.73979 3.83959C6.85041 3.79534 6.94791 3.72522 7.02554 3.61197C7.16091 3.41284 7.12041 3.28834 7.19016 3.11734C7.25129 2.96809 7.42229 2.96809 7.48304 3.11734C7.55354 3.28834 7.51266 3.41284 7.64804 3.61197C7.72529 3.72559 7.82279 3.79534 7.93379 3.83959C8.13629 3.92059 8.36466 3.92322 8.56904 3.84672C8.75954 3.77547 8.88629 3.63597 8.94254 3.42147L8.94291 3.45784C8.93384 3.8778 8.76063 4.2775 8.46041 4.5713C8.1602 4.8651 7.75684 5.02963 7.33679 5.02963C6.91673 5.02963 6.51338 4.8651 6.21316 4.5713C5.91294 4.2775 5.73974 3.8778 5.73066 3.45784Z" fill="#787878"/>
</svg>
