<svg width="14" height="14" viewBox="0 0 14 14" fill="none" xmlns="http://www.w3.org/2000/svg">
<path d="M5 11.9622V7.96216C5 7.78535 4.92976 7.61578 4.80474 7.49075C4.67971 7.36573 4.51014 7.29549 4.33333 7.29549H1.66667C1.48986 7.29549 1.32029 7.36573 1.19526 7.49075C1.07024 7.61578 1 7.78535 1 7.96216V11.9622C1 12.139 1.07024 12.3085 1.19526 12.4336C1.32029 12.5586 1.48986 12.6288 1.66667 12.6288M5 11.9622C5 12.139 4.92976 12.3085 4.80474 12.4336C4.67971 12.5586 4.51014 12.6288 4.33333 12.6288H1.66667M5 11.9622C5 12.139 5.07024 12.3085 5.19526 12.4336C5.32029 12.5586 5.48986 12.6288 5.66667 12.6288H8.33333C8.51014 12.6288 8.67971 12.5586 8.80474 12.4336C8.92976 12.3085 9 12.139 9 11.9622M5 11.9622V2.62882C5 2.45201 5.07024 2.28244 5.19526 2.15742C5.32029 2.0324 5.48986 1.96216 5.66667 1.96216H8.33333C8.51014 1.96216 8.67971 2.0324 8.80474 2.15742C8.92976 2.28244 9 2.45201 9 2.62882V11.9622M1.66667 12.6288H11M9 11.9622C9 12.139 9.07024 12.3085 9.19526 12.4336C9.32029 12.5586 9.48986 12.6288 9.66667 12.6288H12.3333C12.5101 12.6288 12.6797 12.5586 12.8047 12.4336C12.9298 12.3085 13 12.139 13 11.9622V5.29549C13 5.11868 12.9298 4.94911 12.8047 4.82409C12.6797 4.69906 12.5101 4.62882 12.3333 4.62882H9.66667C9.48986 4.62882 9.32029 4.69906 9.19526 4.82409C9.07024 4.94911 9 5.11868 9 5.29549V11.9622Z" stroke="#8B1483" stroke-width="2" stroke-linecap="round" stroke-linejoin="round"/>
</svg>
