<svg width="16" height="16" viewBox="0 0 16 16" fill="none" xmlns="http://www.w3.org/2000/svg">
<path d="M13.5998 3.15333V3C13.5998 2.33696 13.3364 1.70107 12.8676 1.23223C12.3987 0.763392 11.7629 0.5 11.0998 0.5C10.4368 0.5 9.80089 0.763392 9.33205 1.23223C8.8632 1.70107 8.59981 2.33696 8.59981 3H6.93315C6.93315 2.33696 6.66975 1.70107 6.20091 1.23223C5.73207 0.763392 5.09619 0.5 4.43315 0.5C3.7701 0.5 3.13422 0.763392 2.66538 1.23223C2.19654 1.70107 1.93315 2.33696 1.93315 3V3.15333C1.44739 3.32507 1.02656 3.64269 0.728219 4.06275C0.429883 4.48281 0.268615 4.98478 0.266479 5.5V13C0.266479 14.3783 1.38815 15.5 2.76648 15.5H12.7665C14.1448 15.5 15.2665 14.3783 15.2665 13V5.5C15.2643 4.98478 15.1031 4.48281 14.8047 4.06275C14.5064 3.64269 14.0856 3.32507 13.5998 3.15333ZM10.2665 3C10.2665 2.77899 10.3543 2.56702 10.5106 2.41074C10.6668 2.25446 10.8788 2.16667 11.0998 2.16667C11.3208 2.16667 11.5328 2.25446 11.6891 2.41074C11.8453 2.56702 11.9331 2.77899 11.9331 3V4.66667C11.9331 4.88768 11.8453 5.09964 11.6891 5.25592C11.5328 5.4122 11.3208 5.5 11.0998 5.5C10.8788 5.5 10.6668 5.4122 10.5106 5.25592C10.3543 5.09964 10.2665 4.88768 10.2665 4.66667V3ZM3.59981 3C3.59981 2.77899 3.68761 2.56702 3.84389 2.41074C4.00017 2.25446 4.21213 2.16667 4.43315 2.16667C4.65416 2.16667 4.86612 2.25446 5.0224 2.41074C5.17868 2.56702 5.26648 2.77899 5.26648 3V4.66667C5.26648 4.88768 5.17868 5.09964 5.0224 5.25592C4.86612 5.4122 4.65416 5.5 4.43315 5.5C4.21213 5.5 4.00017 5.4122 3.84389 5.25592C3.68761 5.09964 3.59981 4.88768 3.59981 4.66667V3ZM13.5998 13C13.5998 13.4592 13.2265 13.8333 12.7665 13.8333H2.76648C2.30648 13.8333 1.93315 13.4592 1.93315 13V8H13.5998V13Z" fill="#030C35"/>
</svg>
