<svg width="17" height="18" viewBox="0 0 17 18" fill="none" xmlns="http://www.w3.org/2000/svg">
<path d="M12.9768 4.0504L10.5547 0.5L1.64877 7.93854L1.15505 7.93297V7.94094H0.766479V17.5H16.7665V7.94094H16.0335L14.5752 3.48083L12.9768 4.0504ZM14.4236 7.94094H6.78324L12.4739 5.91282L13.6335 5.52488L14.4236 7.94094ZM11.4712 4.5873L5.59696 6.68073L10.2491 2.79497L11.4712 4.5873ZM2.29029 14.4483V10.9911C2.61195 10.8724 2.90412 10.6799 3.14538 10.4278C3.38664 10.1757 3.57088 9.87035 3.68457 9.53411H13.8484C13.962 9.87049 14.1462 10.176 14.3874 10.4283C14.6287 10.6805 14.9209 10.8731 15.2427 10.9919V14.4491C14.9209 14.5678 14.6287 14.7604 14.3874 15.0127C14.1462 15.2649 13.962 15.5704 13.8484 15.9068H3.6861C3.57195 15.5704 3.3874 15.2649 3.14592 15.0125C2.90444 14.7602 2.61212 14.5674 2.29029 14.4483Z" fill="#030C35"/>
</svg>
