<svg width="105" height="114" viewBox="0 0 105 114" fill="none" xmlns="http://www.w3.org/2000/svg">
<path d="M50.9978 51.7828C48.1113 51.7828 45.4746 51.311 43.0876 50.3673C40.7007 49.4237 38.6468 48.1053 36.926 46.4122C35.2052 44.7192 33.8729 42.7208 32.9293 40.4171C31.9856 38.0857 31.5137 35.5461 31.5137 32.7984C31.5137 30.0506 31.9856 27.5249 32.9293 25.2212C33.8729 22.9175 35.2052 20.9192 36.926 19.2261C38.6746 17.533 40.7562 16.2286 43.1709 15.3126C45.5856 14.3967 48.2501 13.9388 51.1644 13.9388C54.0231 13.9388 56.6321 14.3828 58.9913 15.271C61.3505 16.1592 63.3905 17.422 65.1113 19.0596C66.8599 20.6694 68.206 22.5984 69.1497 24.8465C70.0933 27.0669 70.5652 29.5233 70.5652 32.2155C70.5652 34.5747 70.2737 36.6008 69.6909 38.2939C69.108 39.9869 68.2615 41.3053 67.1513 42.249C66.0689 43.1649 64.7366 43.6228 63.1546 43.6228C61.6003 43.6228 60.3513 43.151 59.4076 42.2073C58.4917 41.2637 58.0338 39.9175 58.0338 38.169V35.3379L58.2419 32.7984L57.8672 28.0106V22.4735H61.4893V37.4612C61.4893 38.5714 61.7113 39.3486 62.1554 39.7926C62.6272 40.2367 63.1962 40.4588 63.8623 40.4588C64.6672 40.4588 65.3611 40.1396 65.944 39.5012C66.5546 38.8628 66.9986 37.933 67.2762 36.7118C67.5815 35.4628 67.7342 33.9779 67.7342 32.2571C67.7342 29.9257 67.3317 27.8163 66.5268 25.929C65.7497 24.0139 64.6117 22.3624 63.1129 20.9747C61.6419 19.5869 59.8933 18.5322 57.8672 17.8106C55.8689 17.0612 53.6346 16.6865 51.1644 16.6865C48.6942 16.6865 46.4321 17.089 44.3782 17.8939C42.3521 18.671 40.6035 19.7812 39.1325 21.2245C37.6615 22.64 36.5235 24.333 35.7186 26.3037C34.9415 28.2743 34.5529 30.4392 34.5529 32.7984C34.5529 35.1853 34.9415 37.3779 35.7186 39.3763C36.4958 41.3469 37.606 43.04 39.0493 44.4555C40.5203 45.8988 42.255 47.009 44.2533 47.7861C46.2795 48.591 48.5276 48.9935 50.9978 48.9935C52.2746 48.9935 53.6207 48.8408 55.0362 48.5355C56.4517 48.2579 57.784 47.8 59.0329 47.1616L59.9488 49.8261C58.6721 50.4645 57.2289 50.9502 55.6191 51.2833C54.0093 51.6163 52.4689 51.7828 50.9978 51.7828ZM50.2484 43.6228C48.2778 43.6228 46.5293 43.1649 45.0027 42.249C43.4762 41.3053 42.2689 40.0286 41.3807 38.4188C40.4925 36.809 40.0484 34.9771 40.0484 32.9233C40.0484 30.8416 40.4925 29.0098 41.3807 27.4277C42.2689 25.8179 43.4762 24.569 45.0027 23.6808C46.5293 22.7649 48.2778 22.3069 50.2484 22.3069C52.1635 22.3069 53.8427 22.7233 55.286 23.5559C56.7293 24.3608 57.8533 25.5543 58.6582 27.1363C59.4909 28.7184 59.9072 30.6473 59.9072 32.9233C59.9072 35.1992 59.5048 37.1281 58.6999 38.7102C57.895 40.2922 56.7709 41.5135 55.3276 42.3739C53.8844 43.2065 52.1913 43.6228 50.2484 43.6228ZM50.8313 40.3755C52.1913 40.3755 53.3986 40.0841 54.4533 39.5012C55.5358 38.8906 56.3823 38.0302 56.9929 36.92C57.6313 35.782 57.9505 34.4498 57.9505 32.9233C57.9505 31.369 57.6313 30.0367 56.9929 28.9265C56.3823 27.8163 55.5358 26.9698 54.4533 26.3869C53.3986 25.8041 52.1913 25.5126 50.8313 25.5126C49.4435 25.5126 48.2084 25.8179 47.126 26.4286C46.0713 27.0114 45.2386 27.8579 44.628 28.9681C44.0452 30.0784 43.7537 31.3967 43.7537 32.9233C43.7537 34.422 44.0452 35.7265 44.628 36.8367C45.2386 37.9469 46.0713 38.8212 47.126 39.4596C48.2084 40.0702 49.4435 40.3755 50.8313 40.3755Z" fill="#FFD02F"/>
<path d="M99.7705 108.322V45.8734L91.9643 50.5296L71.148 62.9464L50.3317 75.3632L12.1684 52.1926L9.56638 50.6128L1.76025 45.8734V108.322H4.36229H99.7705Z" fill="#0A54E1"/>
<path d="M99.7705 45.8734V108.322H4.36229V112.659H103.24L102.372 45.8734H99.7705Z" fill="#030C35"/>
<path d="M12.1684 52.1926V4.24071H9.56638V50.6128L12.1684 52.1926Z" fill="#030C35"/>
<path d="M99.7705 45.8734V108.322H4.36229M99.7705 45.8734L91.9643 50.5296M99.7705 45.8734H102.372L103.24 112.659H4.36229V108.322M91.9643 50.5296V1.63867H12.1684V4.24071M91.9643 50.5296L71.148 62.9464L50.3317 75.3632L12.1684 52.1926M12.1684 52.1926V4.24071M12.1684 52.1926L9.56638 50.6128M12.1684 4.24071H9.56638V50.6128M9.56638 50.6128L1.76025 45.8734V108.322H4.36229" stroke="#030C35" stroke-width="1.73469"/>
</svg>
