<svg width="131" height="112" viewBox="0 0 131 112" fill="none" xmlns="http://www.w3.org/2000/svg">
<path d="M104.559 19.8873L71 12.4293L128.175 0L104.559 19.8873Z" fill="#FFD02F"/>
<path d="M107.045 21.1303L130.661 2.48631L118.853 29.8308L107.045 57.1752V21.1303Z" fill="#E6B713"/>
<path d="M58.975 49.0906C58.3873 49.8576 57.8806 50.6843 57.4632 51.5574C57.2636 51.9883 57.092 52.4318 56.9495 52.8851L56.8452 53.2247L56.7676 53.5605C56.7144 53.7853 56.6732 54.0128 56.6441 54.242C56.518 55.17 56.5546 56.113 56.752 57.0282C56.9329 57.9372 57.2948 58.7997 57.8158 59.5635L58.0278 59.8544C58.096 59.9537 58.1822 60.0353 58.258 60.1276C58.4133 60.3076 58.5811 60.4761 58.7601 60.632C58.8017 60.6742 58.8473 60.7121 58.8964 60.7451L59.0384 60.8505C59.1304 60.9248 59.2267 60.9934 59.3268 61.0559C59.5266 61.1797 59.7328 61.2925 59.9445 61.3939C60.1557 61.4887 60.3747 61.5644 60.5991 61.6203C60.8179 61.68 61.0418 61.7187 61.2679 61.7358C61.6962 61.7749 62.1275 61.7075 62.5241 61.5396C63.0573 61.2875 63.4996 60.8744 63.7897 60.3575C63.9544 60.0825 64.0867 59.7891 64.1841 59.4832C64.2117 59.4069 64.2318 59.3275 64.2559 59.2497C64.2753 59.1706 64.2903 59.0902 64.3081 59.0106C64.349 58.8523 64.3788 58.6913 64.3971 58.5288C64.4106 58.3653 64.4398 58.2032 64.4432 58.0383L64.4457 57.5428L64.3998 57.0467C64.3868 56.881 64.3411 56.7186 64.3145 56.554C64.1734 55.8963 63.9328 55.2645 63.601 54.6807C62.9438 53.5115 61.9315 52.5863 60.7134 52.0416L60.2546 51.8786C60.1775 51.8505 60.0988 51.8274 60.0189 51.8093C59.9389 51.7899 59.8602 51.7642 59.7792 51.7494C59.4572 51.6792 59.1299 51.6367 58.8008 51.6224C58.1363 51.6006 57.4723 51.6814 56.832 51.8619C55.5195 52.2493 54.3102 52.9296 53.2937 53.8526C52.2492 54.7694 51.3732 55.8649 50.7059 57.0887C50.0533 58.3553 49.5399 59.69 49.1747 61.0691C48.7961 62.4657 48.5145 63.9027 48.2471 65.3619C47.9033 67.1586 47.5912 68.9737 47.1126 70.8126C46.8714 71.7778 46.4972 72.7042 46.0009 73.5645C45.7335 74.0122 45.413 74.4253 45.0465 74.7947C44.6795 75.159 44.2741 75.4818 43.8377 75.7575C43.4088 76.0208 42.9584 76.2466 42.4913 76.4323C42.0344 76.6085 41.567 76.756 41.092 76.8739C40.1667 77.0979 39.225 77.246 38.2761 77.3169C36.4205 77.4698 34.5948 77.4763 32.803 77.5797C31.0139 77.6776 29.2508 77.8859 27.5972 78.4011C26.769 78.6605 25.9623 78.985 25.1844 79.3716C23.628 80.154 22.2067 81.1843 20.9752 82.4228C20.364 83.042 19.8007 83.7074 19.29 84.4131C18.7853 85.1201 18.3396 85.8681 17.9574 86.6494L17.6816 87.2394L17.438 87.8441C17.3517 88.0437 17.2889 88.2525 17.2174 88.4578C17.1474 88.6637 17.0736 88.8683 17.0196 89.0796C16.7213 90.0916 16.5069 91.1268 16.3785 92.1746C16.2558 93.2215 16.2281 94.2775 16.2959 95.3295C16.3038 95.5806 16.3322 95.8185 16.351 96.0473C16.3698 96.2761 16.3835 96.4954 16.4119 96.7025C16.4355 96.9104 16.4552 97.1093 16.4712 97.2994C16.496 97.4876 16.5192 97.6667 16.5372 97.8382C16.5666 98.183 16.6137 98.4864 16.6355 98.764C16.6536 99.0431 16.6794 99.2857 16.6871 99.504C16.7098 100.14 16.5247 100.228 16.1829 99.7806C16.0796 99.6416 15.9847 99.4965 15.8989 99.3459C15.8037 99.1654 15.7048 98.9506 15.5985 98.7042C15.3513 98.0952 15.1619 97.4639 15.0328 96.8188C14.8359 95.8228 14.733 94.8103 14.7253 93.7947C14.7225 92.762 14.816 91.7314 15.0046 90.7164C15.4229 88.4132 16.3003 86.2197 17.5835 84.2685C18.8674 82.3357 20.5083 80.6704 22.4163 79.3634C24.3175 78.0492 26.4595 77.1308 28.7169 76.6622C30.9632 76.1994 33.2227 76.1216 35.4248 76.0076C36.6378 75.9419 37.8784 75.8725 39.0539 75.7121C39.6332 75.6342 40.2077 75.5235 40.7747 75.3805C41.3126 75.2413 41.8378 75.056 42.3444 74.8265C43.1138 74.4871 43.7927 73.969 44.3258 73.3145C44.8451 72.6161 45.2314 71.8266 45.4651 70.986C45.7232 70.0875 45.9362 69.1764 46.1034 68.2562C46.285 67.3237 46.4476 66.3808 46.614 65.4323C46.9274 63.5034 47.3658 61.5973 47.9264 59.7262C48.2239 58.775 48.5937 57.8483 49.0325 56.9545C50.1438 54.6706 51.8981 52.768 54.0759 51.4847C55.4007 50.695 56.9055 50.2644 58.444 50.2345C59.2232 50.2317 59.9979 50.3543 60.7389 50.5976C61.4858 50.8391 62.1838 51.2139 62.7996 51.704C63.4139 52.1809 63.9519 52.7504 64.3945 53.3925C64.8322 54.0334 65.1798 54.7324 65.4274 55.4696C65.6453 56.1322 65.7755 56.8209 65.8149 57.5179C65.8414 58.2238 65.7676 58.93 65.5955 59.6148C65.411 60.312 65.1064 60.9711 64.6957 61.562C64.4786 61.8691 64.2234 62.147 63.9365 62.389C63.6388 62.6374 63.3057 62.8392 62.9484 62.9876C62.2436 63.2677 61.4793 63.3607 60.7287 63.2578C60.3675 63.2135 60.0119 63.1316 59.6674 63.0135C59.496 62.9565 59.3277 62.8907 59.163 62.8165C58.9957 62.7467 58.8452 62.6528 58.6859 62.5708L58.4505 62.4428C58.3715 62.401 58.3019 62.3443 58.2272 62.2955C58.0811 62.1933 57.9325 62.0936 57.7895 61.9872C57.2385 61.5409 56.7514 61.0197 56.3423 60.4384C56.1481 60.147 55.9709 59.8444 55.8117 59.5321C55.6526 59.2227 55.5117 58.9041 55.3898 58.578C55.3269 58.4162 55.2816 58.2491 55.2273 58.0848L55.1494 57.8373C55.1269 57.7539 55.1088 57.6696 55.0884 57.5857C54.9216 56.9174 54.8249 56.2332 54.7999 55.5445C54.7775 54.856 54.8218 54.167 54.9322 53.4873C55.0582 52.8159 55.2413 52.1568 55.4793 51.5172C55.9615 50.2668 56.6146 49.0906 57.4196 48.0226C57.8101 47.4937 58.227 46.9851 58.6687 46.4989C59.1046 46.0113 59.5617 45.5476 60.0303 45.0999C61.5303 43.6677 63.1189 42.487 64.628 41.3735C66.1383 40.2591 67.5952 39.2301 68.9038 38.1323C69.5028 37.6258 69.8152 37.4046 69.8797 37.5354C69.9049 37.5949 69.8748 37.7481 69.7651 37.9799C69.7006 38.1213 69.6277 38.2586 69.5467 38.3911C69.4415 38.5717 69.326 38.7461 69.2008 38.9133C68.9996 39.178 68.7947 39.4435 68.5821 39.7035C68.4798 39.8383 68.3595 39.9543 68.2459 40.0773C68.1305 40.1985 68.016 40.3228 67.8983 40.442C67.4289 40.9232 66.9461 41.3924 66.4499 41.8495C65.4556 42.7571 64.4322 43.6259 63.4434 44.4952C62.6309 45.2121 61.8208 45.9217 61.0587 46.6752C60.2983 47.4122 59.5961 48.2079 58.9584 49.0552C58.9643 49.0668 58.9697 49.0777 58.975 49.0906Z" fill="#030C35"/>
<path d="M67.7081 42.4859C67.8144 41.8217 67.9564 41.1639 68.1334 40.5152C68.1754 40.3453 68.2234 40.1775 68.2707 40.0107C68.3162 39.8432 68.3556 39.6746 68.3899 39.5068C68.4982 38.926 68.6252 38.3551 68.7577 37.7868C68.8249 37.5033 68.8938 37.2205 68.9667 36.9401L69.0768 36.5197C69.1123 36.3794 69.1533 36.2408 69.1987 36.1036L70.5557 37.3921L70.1183 37.5505L69.897 37.6298L69.7859 37.6693L69.7303 37.6891L69.7026 37.6993L69.6958 37.7022L69.6941 37.7029C69.6925 37.6997 69.6964 37.7108 69.6904 37.6957H69.6895H69.6855L69.6697 37.6954C69.5067 37.6873 69.344 37.7159 69.1933 37.7791C69.0427 37.8286 68.8922 37.8821 68.742 37.9398C68.224 38.1319 67.6955 38.3261 67.1553 38.4957C66.6085 38.6669 66.0531 38.8089 65.4915 38.9209C64.343 39.1514 63.167 39.209 62.0018 39.0917C61.9133 39.0846 61.8252 39.0723 61.738 39.055C61.651 39.0344 61.5645 39.0106 61.4787 38.9847C61.3074 38.9316 61.1381 38.8753 60.9744 38.8097C60.8319 38.7455 60.7086 38.6447 60.617 38.5172C60.5253 38.3898 60.4685 38.2403 60.4523 38.0837C60.4301 37.9816 60.4293 37.8759 60.4501 37.7735C60.4708 37.6711 60.5126 37.5742 60.5728 37.4891C60.6329 37.404 60.7101 37.3325 60.7993 37.2793C60.8885 37.2262 60.9878 37.1924 61.0907 37.1803C61.3594 37.1717 61.6279 37.2013 61.8884 37.2683C62.4881 37.4002 63.1036 37.4437 63.7156 37.3975C64.3323 37.3489 64.9407 37.225 65.5277 37.0283C65.8466 36.893 66.1798 36.7948 66.5207 36.7357C67.0663 36.6755 67.6016 36.5432 68.1129 36.3422C68.2429 36.2936 68.3736 36.2499 68.5012 36.1904L68.6937 36.1066C68.7568 36.0759 68.8181 36.0403 68.8796 36.0055C68.9322 35.9525 68.9902 35.9052 69.0525 35.8643L69.2478 35.7834C69.3777 35.7307 69.5123 35.6794 69.6464 35.6322L69.87 35.5516L69.9071 35.5382C70.0661 35.4809 70.238 35.4699 70.4029 35.5066C70.5679 35.5432 70.7192 35.626 70.8397 35.7455C70.9601 35.8649 71.0448 36.0162 71.084 36.1819C71.1231 36.3477 71.1152 36.5212 71.061 36.6826C70.8201 37.4013 70.6274 38.134 70.4204 38.8544C70.2128 39.5619 70.0277 40.2706 69.8707 40.9795C69.7095 41.6801 69.6044 42.3926 69.5565 43.1101C69.5314 43.7019 69.35 44.2762 69.031 44.7735C68.9951 44.836 68.9458 44.8895 68.8867 44.9303C68.8276 44.971 68.7602 44.9979 68.6895 45.009C68.6124 45.0185 68.5342 45.0121 68.4595 44.9905C68.416 44.9783 68.3737 44.9622 68.333 44.9426C68.2942 44.9213 68.2369 44.8985 68.2199 44.8636C68.0855 44.6765 67.9807 44.4695 67.9095 44.2499C67.835 44.0355 67.7774 43.8155 67.7372 43.592C67.7112 43.4093 67.7013 43.2246 67.7076 43.0401C67.7173 42.8566 67.7351 42.6734 67.7421 42.491L67.7081 42.4859Z" fill="#030C35"/>
</svg>
