<svg width="20" height="21" viewBox="0 0 20 21" fill="none" xmlns="http://www.w3.org/2000/svg">
<path d="M2.5 6.46671C2.49978 6.1862 2.55488 5.90841 2.66215 5.64922C2.76942 5.39004 2.92675 5.15456 3.12513 4.95625C3.32352 4.75794 3.55906 4.6007 3.81829 4.49354C4.07752 4.38637 4.35533 4.33138 4.63583 4.33171H5.83333V2.66504H10V4.33171H11.6683C13.2149 4.33215 14.6979 4.9467 15.7915 6.04025C16.885 7.1338 17.4996 8.61685 17.5 10.1634V15.5317C17.5002 15.8122 17.4451 16.09 17.3379 16.3492C17.2306 16.6084 17.0733 16.8439 16.8749 17.0422C16.6765 17.2405 16.4409 17.3977 16.1817 17.5049C15.9225 17.612 15.6447 17.667 15.3642 17.6667H4.63583C4.06966 17.6663 3.52678 17.4412 3.12635 17.0409C2.72593 16.6407 2.50066 16.0979 2.5 15.5317V6.46671Z" stroke="#1FC222" stroke-width="1.493" stroke-miterlimit="1.5" stroke-linecap="round" stroke-linejoin="round"/>
<path d="M6.66663 7.56339L13.3333 14.4284L9.99996 10.9942M9.99996 10.9942L6.66663 14.4276M9.99996 10.9942L13.3333 7.56006" stroke="#1FC222" stroke-width="1.502" stroke-miterlimit="1.5" stroke-linecap="round" stroke-linejoin="round"/>
</svg>
