<svg width="16" height="18" viewBox="0 0 16 18" fill="none" xmlns="http://www.w3.org/2000/svg">
<path d="M6 10C5.16667 10 4.45833 9.70833 3.875 9.125C3.29167 8.54167 3 7.83333 3 7C3 6.63333 3.05833 6.28767 3.175 5.963C3.29167 5.63833 3.46667 5.34233 3.7 5.075C3.63333 4.90833 3.58333 4.73333 3.55 4.55C3.51667 4.36667 3.5 4.18333 3.5 4C3.5 3.36667 3.671 2.80433 4.013 2.313C4.355 1.82167 4.80067 1.459 5.35 1.225C5.68333 0.841667 6.075 0.541667 6.525 0.325C6.975 0.108333 7.46667 0 8 0C8.53333 0 9.025 0.108333 9.475 0.325C9.925 0.541667 10.3167 0.841667 10.65 1.225C11.2 1.45833 11.646 1.821 11.988 2.313C12.33 2.805 12.5007 3.36733 12.5 4C12.5 4.18333 12.4833 4.36667 12.45 4.55C12.4167 4.73333 12.3667 4.90833 12.3 5.075C12.5333 5.34167 12.7083 5.63767 12.825 5.963C12.9417 6.28833 13 6.634 13 7C13 7.83333 12.7083 8.54167 12.125 9.125C11.5417 9.70833 10.8333 10 10 10H6ZM0 16V15.2C0 14.6333 0.146 14.1127 0.438 13.638C0.73 13.1633 1.11733 12.8007 1.6 12.55C2.63333 12.0333 3.68333 11.646 4.75 11.388C5.81667 11.13 6.9 11.0007 8 11C9.1 10.9993 10.1833 11.1287 11.25 11.388C12.3167 11.6473 13.3667 12.0347 14.4 12.55C14.8833 12.8 15.271 13.1627 15.563 13.638C15.855 14.1133 16.0007 14.634 16 15.2V16C16 16.55 15.8043 17.021 15.413 17.413C15.0217 17.805 14.5507 18.0007 14 18H2C1.45 18 0.979333 17.8043 0.588 17.413C0.196666 17.0217 0.000666667 16.5507 0 16Z" fill="#787878"/>
</svg>
