<svg width="20" height="20" viewBox="0 0 20 20" fill="none" xmlns="http://www.w3.org/2000/svg">
<g clip-path="url(#clip0_2530_4415)">
<path d="M10.7333 5.84753L14.7117 6.90669M9.88168 9.01086L11.87 9.54086M9.98085 14.9717L10.7758 15.1842C13.0258 15.7842 14.1508 16.0834 15.0375 15.5742C15.9233 15.0659 16.225 13.9467 16.8275 11.71L17.68 8.54586C18.2833 6.30836 18.5842 5.19003 18.0725 4.30836C17.5608 3.4267 16.4367 3.12753 14.1858 2.52836L13.3908 2.31586C11.1408 1.71586 10.0158 1.41669 9.13001 1.92586C8.24335 2.43419 7.94168 3.55336 7.33834 5.79003L6.48668 8.95419C5.88334 11.1917 5.58168 12.31 6.09418 13.1917C6.60584 14.0725 7.73085 14.3725 9.98085 14.9717Z" stroke="#0A54E1" stroke-width="1.5" stroke-linecap="round" stroke-linejoin="round"/>
<path d="M10 17.455L9.20668 17.6717C6.96168 18.2825 5.84001 18.5884 4.95501 18.0692C4.07168 17.5509 3.77001 16.4109 3.16918 14.1292L2.31835 10.9025C1.71668 8.62172 1.41585 7.48088 1.92668 6.58255C2.36835 5.80505 3.33335 5.83338 4.58335 5.83338" stroke="#0A54E1" stroke-width="1.5" stroke-linecap="round" stroke-linejoin="round"/>
</g>
<defs>
<clipPath id="clip0_2530_4415">
<rect width="20" height="20" fill="white"/>
</clipPath>
</defs>
</svg>
