<svg width="24" height="24" viewBox="0 0 24 24" fill="none" xmlns="http://www.w3.org/2000/svg">
<mask id="mask0_2548_7058" style="mask-type:alpha" maskUnits="userSpaceOnUse" x="0" y="0" width="24" height="24">
<rect width="24" height="24" fill="#D9D9D9"/>
</mask>
<g mask="url(#mask0_2548_7058)">
<path d="M4 21C3.71667 21 3.47917 20.9042 3.2875 20.7125C3.09583 20.5208 3 20.2833 3 20C3 19.7167 3.09583 19.4792 3.2875 19.2875C3.47917 19.0958 3.71667 19 4 19H5V13H4C3.71667 13 3.47917 12.9042 3.2875 12.7125C3.09583 12.5208 3 12.2833 3 12C3 11.7167 3.09583 11.4792 3.2875 11.2875C3.47917 11.0958 3.71667 11 4 11H5V5H4C3.71667 5 3.47917 4.90417 3.2875 4.7125C3.09583 4.52083 3 4.28333 3 4C3 3.71667 3.09583 3.47917 3.2875 3.2875C3.47917 3.09583 3.71667 3 4 3H20C20.2833 3 20.5208 3.09583 20.7125 3.2875C20.9042 3.47917 21 3.71667 21 4C21 4.28333 20.9042 4.52083 20.7125 4.7125C20.5208 4.90417 20.2833 5 20 5H19V11H20C20.2833 11 20.5208 11.0958 20.7125 11.2875C20.9042 11.4792 21 11.7167 21 12C21 12.2833 20.9042 12.5208 20.7125 12.7125C20.5208 12.9042 20.2833 13 20 13H19V19H20C20.2833 19 20.5208 19.0958 20.7125 19.2875C20.9042 19.4792 21 19.7167 21 20C21 20.2833 20.9042 20.5208 20.7125 20.7125C20.5208 20.9042 20.2833 21 20 21H4ZM7 19H17V13C16.7167 13 16.4792 12.9042 16.2875 12.7125C16.0958 12.5208 16 12.2833 16 12C16 11.7167 16.0958 11.4792 16.2875 11.2875C16.4792 11.0958 16.7167 11 17 11V5H7V11C7.28333 11 7.52083 11.0958 7.7125 11.2875C7.90417 11.4792 8 11.7167 8 12C8 12.2833 7.90417 12.5208 7.7125 12.7125C7.52083 12.9042 7.28333 13 7 13V19ZM12 16C12.8333 16 13.5417 15.7125 14.125 15.1375C14.7083 14.5625 15 13.8667 15 13.05C15 12.4 14.8125 11.8417 14.4375 11.375C14.0625 10.9083 13.25 9.95 12 8.5C10.75 9.93333 9.9375 10.8875 9.5625 11.3625C9.1875 11.8375 9 12.4 9 13.05C9 13.8667 9.29167 14.5625 9.875 15.1375C10.4583 15.7125 11.1667 16 12 16Z" fill="#787878"/>
</g>
</svg>
