<svg width="169" height="186" viewBox="0 0 169 186" fill="none" xmlns="http://www.w3.org/2000/svg">
<path d="M64.4097 108.926V86.6918C64.4097 64.4579 23.2346 58.6919 20.7641 86.6918V114.691H13.3525V86.6918C14.9995 51.2815 69.3507 50.4576 71.8213 86.6918V108.926H64.4097Z" fill="#FFD02F" stroke="black" stroke-width="1.64701"/>
<path d="M8.41153 115.515C4.08534 116.577 1 117.985 1 123.75V177.277C1.44984 182.185 2.24687 183.939 5.11752 184.689H76.7623C81.7852 184.929 84.9973 184.689 84.9973 178.924V122.926C84.1592 118.581 84.1738 116.338 78.4093 115.515H8.41153Z" fill="#0A54E1" stroke="black" stroke-width="1.64701"/>
<path d="M36.4108 164.1H48.7633C48.2207 161.94 47.8805 160.201 47.7422 158.336C47.6026 156.455 47.6686 154.445 47.9398 151.748C61.9391 129.514 23.2342 130.337 38.0578 151.748C38.4278 157.529 38.1565 160.175 36.4108 164.1Z" fill="#FFD02F" stroke="black" stroke-width="1.64701"/>
<path d="M96.5271 64.4569H161.584C167.348 64.4569 169.818 61.1626 166.525 54.5748L135.23 4.34114C131.937 0.223513 128.643 0.223541 126.172 4.34114L94.0566 54.5748C90.7619 59.5156 93.2318 64.4569 96.5271 64.4569Z" fill="#FFD02F" stroke="black" stroke-width="1.64701"/>
<path d="M126.996 52.1046C126.996 47.1636 133.584 47.1636 133.584 52.1046C133.584 55.3987 126.996 56.2222 126.996 52.1046Z" fill="#0A54E1"/>
<path d="M126.996 43.0461H132.761V20.8115H126.996V43.0461Z" fill="#0A54E1"/>
<path d="M126.996 52.1046C126.996 47.1636 133.584 47.1636 133.584 52.1046C133.584 55.3987 126.996 56.2222 126.996 52.1046Z" stroke="black" stroke-width="1.64701"/>
<path d="M126.996 43.0461H132.761V20.8115H126.996V43.0461Z" stroke="black" stroke-width="1.64701"/>
<path d="M98.997 121.278L89.9385 126.219M106.409 115.514L112.997 109.749M118.761 101.514L123.702 93.2792M127.82 83.3971L130.29 75.1621" stroke="#FFD02F" stroke-width="3.29401" stroke-linecap="round"/>
</svg>
