<svg width="18" height="15" viewBox="0 0 18 15" fill="none" xmlns="http://www.w3.org/2000/svg">
<path fill-rule="evenodd" clip-rule="evenodd" d="M4.78125 3.07666C4.78125 2.40533 5.04793 1.7615 5.52264 1.2868C5.99734 0.812095 6.64117 0.54541 7.3125 0.54541H8.60344C9.42451 0.545176 10.2278 0.784547 10.9148 1.23417C11.6019 1.6838 12.1428 2.32413 12.4712 3.07666H15.75C15.9738 3.07666 16.1884 3.16556 16.3466 3.32379C16.5049 3.48202 16.5938 3.69663 16.5938 3.92041C16.5938 4.14419 16.5049 4.3588 16.3466 4.51703C16.1884 4.67527 15.9738 4.76416 15.75 4.76416H12.8661L13.1065 6.45166H13.6406C14.6476 6.45166 15.6134 6.85169 16.3254 7.56374C17.0375 8.27579 17.4375 9.24154 17.4375 10.2485C17.4375 11.2555 17.0375 12.2213 16.3254 12.9333C15.6134 13.6454 14.6476 14.0454 13.6406 14.0454H4.35938C3.35238 14.0454 2.38663 13.6454 1.67458 12.9333C0.962527 12.2213 0.5625 11.2555 0.5625 10.2485C0.5625 9.24154 0.962527 8.27579 1.67458 7.56374C2.38663 6.85169 3.35238 6.45166 4.35938 6.45166H4.78125V3.07666ZM11.1094 4.40641L11.403 6.45166H6.46875V3.07666C6.46875 2.85288 6.55764 2.63827 6.71588 2.48004C6.87411 2.32181 7.08872 2.23291 7.3125 2.23291H8.60344C9.2128 2.23289 9.80172 2.45269 10.2621 2.85196C10.7224 3.25123 11.0233 3.80316 11.1094 4.40641ZM4.35938 8.13916H13.6406C14.2001 8.13916 14.7366 8.3614 15.1322 8.75698C15.5278 9.15257 15.75 9.68909 15.75 10.2485C15.75 10.808 15.5278 11.3445 15.1322 11.7401C14.7366 12.1357 14.2001 12.3579 13.6406 12.3579H4.35938C3.79993 12.3579 3.26341 12.1357 2.86782 11.7401C2.47224 11.3445 2.25 10.808 2.25 10.2485C2.25 9.68909 2.47224 9.15257 2.86782 8.75698C3.26341 8.3614 3.79993 8.13916 4.35938 8.13916Z" fill="#FFD02F"/>
</svg>
