<svg width="20" height="17" viewBox="0 0 20 17" fill="none" xmlns="http://www.w3.org/2000/svg">
<path fill-rule="evenodd" clip-rule="evenodd" d="M5 3.16504C5 2.36939 5.31607 1.60633 5.87868 1.04372C6.44129 0.48111 7.20435 0.165039 8 0.165039H9.53C10.5031 0.164762 11.4552 0.448461 12.2694 0.981349C13.0837 1.51424 13.7247 2.27315 14.114 3.16504H18C18.2652 3.16504 18.5196 3.2704 18.7071 3.45793C18.8946 3.64547 19 3.89982 19 4.16504C19 4.43026 18.8946 4.68461 18.7071 4.87215C18.5196 5.05968 18.2652 5.16504 18 5.16504H14.582L14.867 7.16504H15.5C16.6935 7.16504 17.8381 7.63915 18.682 8.48306C19.5259 9.32697 20 10.4716 20 11.665C20 12.8585 19.5259 14.0031 18.682 14.847C17.8381 15.6909 16.6935 16.165 15.5 16.165H4.5C3.30653 16.165 2.16193 15.6909 1.31802 14.847C0.474106 14.0031 0 12.8585 0 11.665C0 10.4716 0.474106 9.32697 1.31802 8.48306C2.16193 7.63915 3.30653 7.16504 4.5 7.16504H5V3.16504ZM12.5 4.74104L12.848 7.16504H7V3.16504C7 2.89982 7.10536 2.64547 7.29289 2.45793C7.48043 2.2704 7.73478 2.16504 8 2.16504H9.53C10.2522 2.16501 10.9502 2.42552 11.4958 2.89873C12.0414 3.37194 12.3979 4.02608 12.5 4.74104ZM4.5 9.16504H15.5C16.163 9.16504 16.7989 9.42843 17.2678 9.89727C17.7366 10.3661 18 11.002 18 11.665C18 12.3281 17.7366 12.964 17.2678 13.4328C16.7989 13.9016 16.163 14.165 15.5 14.165H4.5C3.83696 14.165 3.20107 13.9016 2.73223 13.4328C2.26339 12.964 2 12.3281 2 11.665C2 11.002 2.26339 10.3661 2.73223 9.89727C3.20107 9.42843 3.83696 9.16504 4.5 9.16504Z" fill="#FF2FA1"/>
</svg>
