<svg width="21" height="13" viewBox="0 0 21 13" fill="none" xmlns="http://www.w3.org/2000/svg">
<path d="M5 6L6 1H11L14 6M20 3H12.2M1 9C1 8.20435 1.31607 7.44129 1.87868 6.87868C2.44129 6.31607 3.20435 6 4 6H16C16.7956 6 17.5587 6.31607 18.1213 6.87868C18.6839 7.44129 19 8.20435 19 9C19 9.79565 18.6839 10.5587 18.1213 11.1213C17.5587 11.6839 16.7956 12 16 12H4C3.20435 12 2.44129 11.6839 1.87868 11.1213C1.31607 10.5587 1 9.79565 1 9Z" stroke="#030C35" stroke-width="2" stroke-linecap="round" stroke-linejoin="round"/>
</svg>
