<svg width="252" height="147" viewBox="0 0 252 147" fill="none" xmlns="http://www.w3.org/2000/svg">
<path d="M188.5 135C99.0564 130.604 51.7189 128.862 1.5 134.569V145.5H188.5V135Z" fill="#787878"/>
<path d="M1.5 134.569C51.7189 128.862 99.0564 130.604 188.5 135V55.5001C150.227 63.1257 128.775 63.3998 90.5 55.5001C62.1379 46.5024 43.5346 45.9343 1.5 55.069V134.569Z" fill="#FFE382"/>
<path d="M5 42.9958H45.2756C47.4847 42.9958 49.2756 41.205 49.2756 38.9958V21.9979V5C49.2756 2.79086 51.0664 1 53.2756 1H132.015C134.224 1 136.015 2.79086 136.015 5V38.9958C136.015 41.205 137.805 42.9958 140.015 42.9958H185C187.209 42.9958 189 44.7867 189 46.9958V141.827C189 144.036 187.209 145.827 185 145.827H5C2.79086 145.827 1 144.036 1 141.827V46.9958C1 44.7867 2.79086 42.9958 5 42.9958Z" stroke="#030C35" stroke-width="0.784969"/>
<path d="M192.195 135.505C192.31 135.492 192.461 135.506 192.575 135.525C192.611 135.531 192.593 135.558 192.618 135.563C192.666 135.573 192.711 135.56 192.759 135.572C192.775 135.577 192.755 135.619 192.772 135.622C192.863 135.641 192.949 135.63 193.041 135.639C193.496 135.683 193.943 135.699 194.403 135.718C194.555 135.724 194.74 135.762 194.896 135.745C194.915 135.743 194.904 135.707 194.907 135.704C194.962 135.657 194.944 135.731 194.979 135.741C195.121 135.78 195.278 135.784 195.414 135.77C195.472 135.763 195.414 135.69 195.472 135.731C195.477 135.734 195.462 135.773 195.478 135.777C195.514 135.787 195.582 135.78 195.61 135.783C195.664 135.789 195.673 135.789 195.724 135.789C195.793 135.79 195.876 135.809 195.951 135.801C195.967 135.799 195.945 135.758 195.971 135.752C195.996 135.745 196.064 135.748 196.086 135.758C196.109 135.767 196.099 135.799 196.103 135.806C196.136 135.867 196.214 135.782 196.224 135.78C196.407 135.745 196.564 135.793 196.735 135.793C196.865 135.793 197.004 135.777 197.128 135.779C197.276 135.782 197.401 135.803 197.544 135.8C197.559 135.799 197.541 135.752 197.56 135.752C197.756 135.746 197.951 135.751 198.146 135.783C198.166 135.786 198.141 135.828 198.16 135.833C198.28 135.867 198.47 135.949 198.541 135.769C198.622 135.776 198.721 135.783 198.794 135.82C198.84 135.843 198.795 135.888 198.852 135.869C198.865 135.865 198.848 135.825 198.868 135.822C198.95 135.807 199.039 135.82 199.12 135.8C199.137 135.795 199.132 135.76 199.137 135.753C199.176 135.702 199.242 135.787 199.256 135.793C199.364 135.84 199.444 135.821 199.545 135.823C199.568 135.823 199.541 135.775 199.563 135.774C199.68 135.767 199.801 135.771 199.916 135.792C199.942 135.797 199.918 135.838 199.93 135.842C199.984 135.861 199.996 135.784 200.047 135.801C200.058 135.804 200.052 135.839 200.054 135.843C200.085 135.902 200.112 135.818 200.12 135.816C200.221 135.79 200.285 135.879 200.383 135.866C200.395 135.865 200.368 135.821 200.401 135.819C200.619 135.807 200.85 135.819 201.066 135.854C201.1 135.859 201.076 135.892 201.078 135.896C201.113 135.96 201.135 135.875 201.146 135.872C201.232 135.849 201.313 135.92 201.372 135.819C201.738 135.854 202.102 135.797 202.465 135.888C202.47 135.889 202.462 135.931 202.471 135.932C202.582 135.956 202.561 135.891 202.634 135.811C202.652 135.791 202.709 135.887 202.714 135.894C202.732 135.92 202.713 135.983 202.719 135.988C202.769 136.027 202.761 135.821 202.829 135.821C202.831 135.821 202.822 135.859 202.828 135.863C202.845 135.875 202.863 135.86 202.88 135.873C202.92 135.903 202.934 136.003 202.994 135.945C203.002 135.937 202.99 135.821 203.051 135.826C203.075 135.828 203.182 135.826 203.212 135.834C203.241 135.842 203.221 135.879 203.223 135.881C203.304 135.931 203.273 135.951 203.313 136.025C203.354 136.099 203.342 135.923 203.359 135.904C203.375 135.884 203.434 135.925 203.449 135.94C203.463 135.954 203.445 135.978 203.458 135.986C203.544 136.039 203.496 135.899 203.524 135.871C203.59 135.805 203.642 135.935 203.703 135.948C203.719 135.951 203.706 135.922 203.721 135.919C203.779 135.908 203.813 135.949 203.879 135.912C203.89 135.906 203.944 135.828 203.978 135.885C203.983 135.893 203.969 135.926 203.994 135.933C204.031 135.944 204.097 135.951 204.137 135.94C204.166 135.932 204.133 135.879 204.17 135.895C204.186 135.903 204.156 135.934 204.186 135.945C204.217 135.956 204.295 135.955 204.325 135.954C204.355 135.953 204.339 135.912 204.341 135.91C204.356 135.894 204.413 135.875 204.418 135.875C204.672 135.87 204.907 135.938 205.155 135.915C205.174 135.914 205.162 135.871 205.165 135.87C205.231 135.852 205.179 135.966 205.225 136.004C205.218 135.917 205.246 135.933 205.293 135.923C205.315 135.919 205.303 135.885 205.305 135.882C205.339 135.831 205.362 135.897 205.368 135.91C205.39 135.96 205.414 135.901 205.429 135.934C205.445 135.967 205.41 136.016 205.455 136.015C205.467 135.984 205.434 135.903 205.468 135.89C205.597 135.84 205.838 135.904 205.941 135.91C206.045 135.917 206.078 135.911 206.138 135.923C206.247 135.943 206.207 135.883 206.275 135.855C206.343 135.828 206.31 135.976 206.319 136.007C206.329 136.039 206.339 136.006 206.351 136.024C206.363 136.041 206.337 136.063 206.365 136.07C206.393 136.076 206.47 136.02 206.479 135.986C206.5 135.916 206.466 135.842 206.54 135.868C206.544 135.869 206.53 135.908 206.547 135.912C206.676 135.942 206.81 135.944 206.939 135.971C206.957 135.974 206.941 136.018 206.951 136.02C207.059 136.048 207.02 135.975 207.079 135.894C207.066 136.002 207.098 136.068 207.18 136.068C207.229 136.069 207.221 136.022 207.252 135.988C207.262 135.978 207.297 136.011 207.303 135.989C207.324 135.916 207.291 135.835 207.375 135.867C207.379 135.869 207.367 135.909 207.38 135.911C207.462 135.927 207.472 135.851 207.561 135.842C207.631 135.835 207.755 135.881 207.835 135.888C207.833 136.01 207.908 135.982 207.939 135.898C207.99 135.902 208.046 135.897 208.096 135.908C208.113 135.912 208.102 135.947 208.104 135.951C208.137 136.011 208.16 135.929 208.171 135.926C208.292 135.895 208.39 135.957 208.505 135.897C208.509 135.894 208.516 135.81 208.547 135.872C208.549 135.876 208.511 135.914 208.565 135.917C208.619 135.92 208.721 135.965 208.797 135.926C208.815 135.917 208.861 135.849 208.898 135.902C208.903 135.909 208.897 135.933 208.905 135.947C208.928 135.99 208.94 135.905 208.967 135.977C208.994 136.049 209.05 136.103 209.126 136.053C209.129 136.052 209.147 135.985 209.171 135.986C209.209 135.987 209.263 136.001 209.303 136.001C209.322 136.001 209.309 135.959 209.313 135.958C209.441 135.935 209.532 135.972 209.669 135.988C209.694 135.991 209.767 135.934 209.815 135.979C209.869 136.029 209.814 136.234 209.937 136.185C209.986 136.166 210.049 135.905 210.138 136.04C210.311 136.007 210.471 136.076 210.644 136.028C210.652 136.026 210.677 135.953 210.695 135.954C210.722 135.956 210.737 135.99 210.756 135.992C210.838 136.002 210.912 135.973 210.991 135.977C211.021 135.979 211.01 136.014 211.046 136.016C211.081 136.018 211.105 135.972 211.153 135.994C211.189 136.011 211.226 136.106 211.274 136.117C211.276 136.024 211.309 136.026 211.368 136.001C211.379 135.996 211.367 135.964 211.372 135.96C211.394 135.943 211.414 135.97 211.435 135.952C211.44 135.947 211.44 135.915 211.444 135.91C211.479 135.863 211.537 135.935 211.547 135.947C211.585 135.995 211.602 135.953 211.632 135.972C211.661 135.991 211.617 136.014 211.651 136.025C211.721 136.049 211.812 136.044 211.883 136.045C211.912 136.045 211.892 136.003 211.896 136.002C211.955 135.991 212.015 136.036 212.048 135.952C212.089 136.171 212.083 135.93 212.167 135.974C212.174 135.978 212.183 136.082 212.157 136.097C212.132 136.112 212.093 136.08 212.058 136.103C212.049 136.109 212.001 136.206 211.995 136.212C211.943 136.258 211.936 136.103 211.933 136.094C211.903 136.003 211.844 136.107 211.829 136.115C211.758 136.148 211.698 136.126 211.639 136.15C211.6 136.165 211.597 136.266 211.566 136.263C211.465 136.253 211.43 136.111 211.335 136.234C211.315 136.26 211.335 136.371 211.262 136.284C211.258 136.279 211.203 136.199 211.172 136.249C211.168 136.256 211.168 136.288 211.163 136.291C211.128 136.308 211.105 136.283 211.067 136.295C211.029 136.307 210.984 136.326 210.941 136.315C210.915 136.308 210.881 136.248 210.869 136.233C210.834 136.191 210.796 136.26 210.774 136.209C210.752 136.157 210.795 136.078 210.737 136.045C210.735 136.129 210.73 136.215 210.727 136.3C210.6 136.297 210.476 136.27 210.349 136.273C210.333 136.274 210.35 136.319 210.333 136.321C210.262 136.328 210.199 136.296 210.126 136.309C210.069 136.319 210.006 136.367 209.946 136.379C209.91 136.283 209.821 136.315 209.757 136.306C209.734 136.303 209.736 136.278 209.72 136.269C209.659 136.238 209.688 136.323 209.671 136.337C209.6 136.394 209.594 136.201 209.51 136.206C209.506 136.206 209.451 136.309 209.444 136.315C209.396 136.357 209.436 136.28 209.406 136.272C209.352 136.258 209.314 136.234 209.25 136.264C209.232 136.273 209.187 136.337 209.151 136.287C209.146 136.281 209.149 136.247 209.145 136.245C209.076 136.212 209.074 136.318 209.035 136.354C208.995 136.39 208.934 136.317 208.922 136.296C208.889 136.241 208.947 136.272 208.948 136.267C208.969 136.203 208.925 136.214 208.89 136.208C208.886 136.104 208.838 136.11 208.855 136.203C208.857 136.213 208.884 136.204 208.89 136.208C208.861 136.311 208.808 136.324 208.751 136.228C208.724 136.183 208.749 136.131 208.667 136.15C208.63 136.159 208.644 136.231 208.611 136.25C208.536 136.295 208.438 136.228 208.361 136.238C208.333 136.242 208.36 136.282 208.341 136.286C208.29 136.296 208.245 136.267 208.194 136.282C208.189 136.283 208.201 136.325 208.185 136.325C208.064 136.33 207.959 136.303 207.833 136.303C207.772 136.302 207.663 136.325 207.6 136.321C207.491 136.313 207.356 136.253 207.263 136.268C207.202 136.277 207.215 136.318 207.189 136.346C207.139 136.401 207.049 136.303 207.037 136.288C207.037 136.287 207.089 136.278 207.061 136.257C207.045 136.213 207.038 136.288 207.037 136.288C207.029 136.278 206.925 136.269 206.904 136.277C206.893 136.281 206.899 136.32 206.893 136.322C206.753 136.357 206.613 136.366 206.471 136.348C206.468 136.347 206.472 136.304 206.466 136.302C206.384 136.283 206.331 136.336 206.263 136.368C206.196 136.4 206.142 136.389 206.102 136.314C206.051 136.324 205.977 136.291 205.935 136.27C205.893 136.25 205.887 136.335 205.883 136.337C205.767 136.391 205.7 136.342 205.58 136.335C205.523 136.331 205.409 136.343 205.347 136.352C205.298 136.36 205.269 136.34 205.224 136.353C205.218 136.355 205.224 136.392 205.222 136.394C205.172 136.439 205.196 136.347 205.186 136.33C205.148 136.27 205.125 136.238 205.06 136.266C205.045 136.273 205.002 136.406 204.975 136.414C204.94 136.424 204.953 136.376 204.916 136.387C204.913 136.388 204.914 136.418 204.891 136.417C204.785 136.411 204.67 136.394 204.56 136.397C204.545 136.397 204.564 136.444 204.543 136.445C204.441 136.45 204.33 136.449 204.231 136.427C204.206 136.421 204.222 136.389 204.216 136.379C204.184 136.32 204.138 136.405 204.13 136.407C203.949 136.448 203.81 136.371 203.625 136.408C203.615 136.41 203.538 136.501 203.503 136.423C203.501 136.418 203.466 136.337 203.436 136.392C203.434 136.396 203.456 136.437 203.418 136.433C203.381 136.429 203.321 136.456 203.27 136.411C203.254 136.396 203.216 136.316 203.168 136.38C203.164 136.385 203.09 136.529 203.063 136.429C203.059 136.413 203.064 136.308 203.006 136.362C202.995 136.372 203.015 136.396 202.986 136.41C202.942 136.433 202.883 136.405 202.828 136.452C202.819 136.46 202.778 136.532 202.746 136.477C202.74 136.469 202.75 136.434 202.733 136.43C202.651 136.411 202.566 136.434 202.483 136.41C202.453 136.401 202.468 136.344 202.438 136.329C202.407 136.314 202.346 136.299 202.314 136.325C202.281 136.351 202.316 136.442 202.268 136.449C202.06 136.481 201.853 136.428 201.645 136.42C201.614 136.419 201.639 136.451 201.594 136.452C201.426 136.454 201.136 136.485 200.99 136.416C200.874 136.36 201.02 136.318 200.931 136.296C200.888 136.285 200.842 136.391 200.831 136.394C200.73 136.428 200.659 136.381 200.568 136.395C200.549 136.398 200.567 136.441 200.551 136.443C200.496 136.45 200.439 136.431 200.386 136.435C200.363 136.436 200.367 136.469 200.346 136.467C200.294 136.461 200.248 136.447 200.198 136.417C200.193 136.414 200.224 136.373 200.186 136.372C200.124 136.369 200.047 136.339 199.975 136.37C199.954 136.38 199.953 136.454 199.908 136.403C199.898 136.392 199.911 136.302 199.858 136.38C199.849 136.393 199.76 136.497 199.716 136.43C199.704 136.412 199.675 136.339 199.65 136.35C199.646 136.352 199.66 136.392 199.639 136.396C199.564 136.409 199.487 136.405 199.41 136.418C199.39 136.421 199.42 136.462 199.39 136.466C199.306 136.477 199.202 136.466 199.12 136.453C199.09 136.448 199.111 136.414 199.109 136.41C199.073 136.349 199.053 136.432 199.041 136.436C198.968 136.465 198.913 136.426 198.846 136.437C198.827 136.439 198.84 136.478 198.837 136.482C198.798 136.516 198.827 136.446 198.803 136.438C198.735 136.416 198.659 136.419 198.591 136.424C198.566 136.426 198.594 136.471 198.571 136.473C198.438 136.48 198.299 136.476 198.168 136.451C198.143 136.446 198.159 136.411 198.154 136.403C198.119 136.348 198.067 136.424 198.055 136.431C198.001 136.464 197.98 136.433 197.932 136.439C197.698 136.468 197.41 136.447 197.19 136.435C196.903 136.418 196.68 136.385 196.406 136.394C196.389 136.394 196.406 136.441 196.391 136.442C196.197 136.453 196.007 136.435 195.813 136.448C195.797 136.449 195.82 136.493 195.794 136.496C195.742 136.503 195.675 136.501 195.622 136.487C195.596 136.48 195.631 136.442 195.605 136.436C195.544 136.422 195.479 136.419 195.417 136.426C195.391 136.429 195.431 136.474 195.396 136.474C195.162 136.479 194.931 136.487 194.694 136.428C194.678 136.424 194.664 136.333 194.629 136.35C194.626 136.376 194.627 136.406 194.625 136.433C194.284 136.447 193.946 136.416 193.604 136.411C193.589 136.411 193.614 136.459 193.586 136.459C193.424 136.458 193.267 136.472 193.102 136.423C193.085 136.419 193.094 136.333 193.045 136.346C193.037 136.349 192.964 136.36 192.945 136.378C192.943 136.381 192.956 136.421 192.932 136.422C192.796 136.428 192.653 136.419 192.517 136.395C192.495 136.391 192.518 136.348 192.502 136.345C192.391 136.323 192.27 136.355 192.164 136.316C192.093 136.29 192.12 136.217 192.082 136.145C192.076 136.135 192.032 136.133 192.03 136.091C192.024 135.985 192.046 135.87 192.037 135.757C192.035 135.733 191.976 135.759 192.011 135.7C192.013 135.696 192.056 135.677 192.067 135.657C192.074 135.643 192.061 135.6 192.076 135.583C192.091 135.565 192.107 135.601 192.132 135.58C192.157 135.559 192.146 135.511 192.195 135.505ZM205.745 136.181C205.706 136.14 205.7 136.289 205.742 136.253C205.744 136.252 205.747 136.183 205.745 136.181ZM210.477 136.157C210.426 136.091 210.391 136.188 210.427 136.239C210.463 136.29 210.492 136.177 210.477 136.157ZM211.007 136.109C210.947 136.057 210.938 136.269 211.002 136.226C211.005 136.224 211.01 136.112 211.007 136.109ZM192.257 136.124C192.256 136.122 192.225 136.12 192.224 136.122C192.207 136.17 192.27 136.174 192.257 136.124ZM211.533 136.056C211.514 136.028 211.461 136.061 211.484 136.096C211.503 136.125 211.556 136.092 211.533 136.056ZM203.704 136.021C203.704 136.019 203.681 136.017 203.682 136.029C203.683 136.07 203.715 136.058 203.704 136.021ZM212.427 136.054C212.295 136.046 212.215 135.871 212.359 135.891C212.385 135.894 212.303 135.946 212.336 135.962C212.397 135.991 212.437 135.881 212.499 135.94C212.51 135.951 212.435 136.055 212.427 136.054C212.427 136.054 212.427 136.054 212.427 136.054ZM205.722 136.001C205.721 135.999 205.69 135.997 205.689 135.999C205.672 136.047 205.735 136.05 205.722 136.001ZM202.381 135.928C202.38 135.924 202.307 135.92 202.304 135.924C202.266 136.002 202.414 136.01 202.381 135.928ZM207.836 135.891C207.87 135.844 207.911 135.838 207.939 135.898C207.905 135.895 207.87 135.894 207.836 135.891Z" fill="#030C35"/>
<path d="M192.195 58.5051C192.31 58.4921 192.461 58.506 192.575 58.5251C192.611 58.531 192.593 58.5575 192.618 58.5628C192.666 58.5731 192.711 58.5601 192.759 58.5724C192.775 58.5766 192.755 58.6186 192.772 58.622C192.863 58.6406 192.949 58.6299 193.041 58.6388C193.496 58.6828 193.943 58.6986 194.403 58.7177C194.555 58.724 194.74 58.7621 194.896 58.7454C194.915 58.7435 194.904 58.7066 194.907 58.7036C194.962 58.6571 194.944 58.7315 194.979 58.7414C195.121 58.7804 195.278 58.7838 195.414 58.7695C195.472 58.7634 195.414 58.6902 195.472 58.7313C195.477 58.7341 195.462 58.7732 195.478 58.7774C195.514 58.7867 195.582 58.7798 195.61 58.7829C195.664 58.789 195.673 58.7886 195.724 58.7891C195.793 58.79 195.876 58.8095 195.951 58.8006C195.967 58.7986 195.945 58.7585 195.971 58.7517C195.996 58.7449 196.064 58.7483 196.086 58.7577C196.109 58.7672 196.099 58.7987 196.103 58.8059C196.136 58.8669 196.214 58.7824 196.224 58.7804C196.407 58.7448 196.564 58.7929 196.735 58.7927C196.865 58.7925 197.004 58.7766 197.128 58.7788C197.276 58.7816 197.401 58.8033 197.544 58.7996C197.559 58.7992 197.541 58.7521 197.56 58.7515C197.756 58.7461 197.951 58.7512 198.146 58.783C198.166 58.7863 198.141 58.8277 198.16 58.8334C198.28 58.8674 198.47 58.9492 198.541 58.7689C198.622 58.7759 198.721 58.7832 198.794 58.8195C198.84 58.8429 198.795 58.888 198.852 58.8688C198.865 58.8645 198.848 58.825 198.868 58.8216C198.95 58.8071 199.039 58.8199 199.12 58.7995C199.137 58.7953 199.132 58.7599 199.137 58.7535C199.176 58.7019 199.242 58.7872 199.256 58.7934C199.364 58.8397 199.444 58.8215 199.545 58.8226C199.568 58.8229 199.541 58.7753 199.563 58.7739C199.68 58.7671 199.801 58.7712 199.916 58.7923C199.942 58.7971 199.918 58.8376 199.93 58.8419C199.984 58.8607 199.996 58.7842 200.047 58.8007C200.058 58.8041 200.052 58.8388 200.054 58.8426C200.085 58.9024 200.112 58.8177 200.12 58.8158C200.221 58.7903 200.285 58.8787 200.383 58.8662C200.395 58.8646 200.368 58.8207 200.401 58.8189C200.619 58.8068 200.85 58.8189 201.066 58.854C201.1 58.8594 201.076 58.8923 201.078 58.8964C201.113 58.9599 201.135 58.8748 201.146 58.8716C201.232 58.8485 201.313 58.9199 201.372 58.8186C201.738 58.8537 202.102 58.7968 202.465 58.8876C202.47 58.8886 202.462 58.9305 202.471 58.9325C202.582 58.956 202.561 58.8909 202.634 58.8112C202.652 58.7912 202.709 58.8874 202.714 58.8944C202.732 58.9204 202.713 58.9827 202.719 58.9877C202.769 59.0272 202.761 58.8211 202.829 58.8211C202.831 58.8214 202.822 58.8593 202.828 58.8631C202.845 58.875 202.863 58.8599 202.88 58.8729C202.92 58.9032 202.934 59.0033 202.994 58.945C203.002 58.9375 202.99 58.8205 203.051 58.8261C203.075 58.8284 203.182 58.8264 203.212 58.8339C203.241 58.8415 203.221 58.8792 203.223 58.8808C203.304 58.9306 203.273 58.9513 203.313 59.025C203.354 59.0985 203.342 58.9233 203.359 58.9037C203.375 58.8842 203.434 58.9253 203.449 58.9396C203.463 58.9539 203.445 58.9778 203.458 58.9859C203.544 59.0388 203.496 58.8989 203.524 58.8711C203.59 58.8052 203.642 58.9352 203.703 58.948C203.719 58.9514 203.706 58.9218 203.721 58.919C203.779 58.9085 203.813 58.949 203.879 58.9118C203.89 58.9058 203.944 58.8276 203.978 58.885C203.983 58.8932 203.969 58.9256 203.994 58.9329C204.031 58.9438 204.097 58.9508 204.137 58.94C204.166 58.932 204.133 58.8786 204.17 58.8952C204.186 58.9026 204.156 58.9338 204.186 58.9451C204.217 58.9564 204.295 58.9551 204.325 58.954C204.355 58.9529 204.339 58.9124 204.341 58.9097C204.356 58.8941 204.413 58.8745 204.418 58.8746C204.672 58.8696 204.907 58.9379 205.155 58.9153C205.174 58.9136 205.162 58.8709 205.165 58.8702C205.231 58.8523 205.179 58.9658 205.225 59.0038C205.218 58.9172 205.246 58.9329 205.293 58.9234C205.315 58.9187 205.303 58.8852 205.305 58.8817C205.339 58.8308 205.362 58.8966 205.368 58.9101C205.39 58.9596 205.414 58.9011 205.429 58.9342C205.445 58.967 205.41 59.0157 205.455 59.0151C205.467 58.9841 205.434 58.903 205.468 58.8899C205.597 58.8402 205.838 58.9038 205.941 58.9104C206.045 58.917 206.078 58.9113 206.138 58.9225C206.247 58.9428 206.207 58.8826 206.275 58.8551C206.343 58.8276 206.31 58.9755 206.319 59.0073C206.329 59.0391 206.339 59.0064 206.351 59.0239C206.363 59.0414 206.337 59.063 206.365 59.0695C206.393 59.0761 206.47 59.0195 206.479 58.9863C206.5 58.9158 206.466 58.8419 206.54 58.8679C206.544 58.8694 206.53 58.9083 206.547 58.9122C206.676 58.9422 206.81 58.9441 206.939 58.9705C206.957 58.9742 206.941 59.0175 206.951 59.0202C207.059 59.0478 207.02 58.9749 207.079 58.8938C207.066 59.0017 207.098 59.0677 207.18 59.0683C207.229 59.0687 207.221 59.0216 207.252 58.9884C207.262 58.9784 207.297 59.0108 207.303 58.9886C207.324 58.9162 207.291 58.8351 207.375 58.8674C207.379 58.8689 207.367 58.9086 207.38 58.911C207.462 58.9267 207.472 58.8509 207.561 58.8418C207.631 58.8346 207.755 58.8807 207.835 58.8883C207.833 59.0095 207.908 58.9818 207.939 58.8982C207.99 58.9016 208.046 58.8968 208.096 58.9084C208.113 58.9123 208.102 58.9475 208.104 58.9513C208.137 59.0108 208.16 58.9294 208.171 58.9262C208.292 58.8952 208.39 58.9569 208.505 58.8966C208.509 58.8945 208.516 58.8102 208.547 58.8717C208.549 58.876 208.511 58.9143 208.565 58.9173C208.619 58.9202 208.721 58.9654 208.797 58.9263C208.815 58.917 208.861 58.8486 208.898 58.902C208.903 58.9093 208.897 58.9334 208.905 58.9469C208.928 58.9897 208.94 58.9045 208.967 58.9769C208.994 59.0492 209.05 59.1034 209.126 59.0535C209.129 59.052 209.147 58.9845 209.171 58.9856C209.209 58.9874 209.263 59.0014 209.303 59.001C209.322 59.0008 209.309 58.9589 209.313 58.9581C209.441 58.9346 209.532 58.972 209.669 58.9882C209.694 58.9912 209.767 58.9341 209.815 58.9793C209.869 59.0287 209.814 59.2345 209.937 59.1854C209.986 59.1658 210.049 58.9048 210.138 59.0401C210.311 59.0065 210.471 59.0758 210.644 59.0279C210.652 59.0258 210.677 58.9529 210.695 58.9539C210.722 58.9555 210.737 58.9896 210.756 58.9918C210.838 59.0021 210.912 58.973 210.991 58.9775C211.021 58.9791 211.01 59.0143 211.046 59.0163C211.081 59.0182 211.105 58.9719 211.153 58.9943C211.189 59.0113 211.226 59.1061 211.274 59.1171C211.276 59.0237 211.309 59.0256 211.368 59.0009C211.379 58.9961 211.367 58.9636 211.372 58.9597C211.394 58.9429 211.414 58.9699 211.435 58.9516C211.44 58.9472 211.44 58.9153 211.444 58.9099C211.479 58.8629 211.537 58.9347 211.547 58.9472C211.585 58.9947 211.602 58.9532 211.632 58.9719C211.661 58.9906 211.617 59.0139 211.651 59.0253C211.721 59.0487 211.812 59.0436 211.883 59.0451C211.912 59.0454 211.892 59.0028 211.896 59.0019C211.955 58.9911 212.015 59.0364 212.048 58.9516C212.089 59.171 212.083 58.9303 212.167 58.9742C212.174 58.9778 212.183 59.0815 212.157 59.0968C212.132 59.112 212.093 59.0795 212.058 59.1033C212.049 59.1089 212.001 59.2061 211.995 59.212C211.943 59.258 211.936 59.103 211.933 59.0944C211.903 59.0025 211.844 59.1073 211.829 59.1145C211.758 59.1477 211.698 59.1259 211.639 59.1496C211.6 59.1649 211.597 59.2664 211.566 59.2633C211.465 59.253 211.43 59.1113 211.335 59.2342C211.315 59.2604 211.335 59.3714 211.262 59.2841C211.258 59.2786 211.203 59.1988 211.172 59.2493C211.168 59.2557 211.168 59.288 211.163 59.2907C211.128 59.3083 211.105 59.2825 211.067 59.2949C211.029 59.3072 210.984 59.3256 210.941 59.3147C210.915 59.3081 210.881 59.2478 210.869 59.233C210.834 59.1905 210.796 59.2602 210.774 59.2088C210.752 59.157 210.795 59.0784 210.737 59.045C210.735 59.1291 210.73 59.2153 210.727 59.2999C210.6 59.2969 210.476 59.2697 210.349 59.2735C210.333 59.274 210.35 59.3192 210.333 59.3209C210.262 59.3281 210.199 59.2959 210.126 59.3087C210.069 59.3188 210.006 59.3667 209.946 59.3787C209.91 59.2825 209.821 59.3152 209.757 59.3064C209.734 59.3034 209.736 59.2777 209.72 59.2693C209.659 59.2383 209.688 59.3233 209.671 59.3367C209.6 59.3938 209.594 59.2014 209.51 59.2061C209.506 59.2063 209.451 59.3089 209.444 59.3153C209.396 59.3569 209.436 59.2796 209.406 59.272C209.352 59.2581 209.314 59.2336 209.25 59.2637C209.232 59.2726 209.187 59.3365 209.151 59.2871C209.146 59.2806 209.149 59.2467 209.145 59.2447C209.076 59.2116 209.074 59.3181 209.035 59.3542C208.995 59.3903 208.934 59.3167 208.922 59.2955C208.889 59.2407 208.947 59.2721 208.948 59.2667C208.969 59.2027 208.925 59.2137 208.89 59.2083C208.886 59.1039 208.838 59.1102 208.855 59.2031C208.857 59.2133 208.884 59.2036 208.89 59.2083C208.861 59.3108 208.808 59.3239 208.751 59.2282C208.724 59.1833 208.749 59.131 208.667 59.1501C208.63 59.1587 208.644 59.2307 208.611 59.2503C208.536 59.295 208.438 59.2279 208.361 59.2385C208.333 59.2423 208.36 59.2817 208.341 59.2857C208.29 59.2963 208.245 59.2668 208.194 59.2819C208.189 59.2834 208.201 59.3246 208.185 59.3251C208.064 59.3299 207.959 59.3035 207.833 59.3028C207.772 59.3024 207.663 59.3251 207.6 59.3206C207.491 59.3129 207.356 59.253 207.263 59.2675C207.202 59.2769 207.215 59.3181 207.189 59.3461C207.139 59.4006 207.049 59.3031 207.037 59.288C207.037 59.2875 207.089 59.2778 207.061 59.2566C207.045 59.2125 207.038 59.2878 207.037 59.288C207.029 59.2782 206.925 59.2689 206.904 59.2767C206.893 59.2811 206.899 59.3201 206.893 59.3216C206.753 59.3566 206.613 59.3665 206.471 59.3482C206.468 59.3474 206.472 59.3038 206.466 59.3024C206.384 59.283 206.331 59.3365 206.263 59.3682C206.196 59.3999 206.142 59.3893 206.102 59.3143C206.051 59.3237 205.977 59.2906 205.935 59.2705C205.893 59.2503 205.887 59.3354 205.883 59.3371C205.767 59.3909 205.7 59.3422 205.58 59.3346C205.523 59.3309 205.409 59.3432 205.347 59.3525C205.298 59.36 205.269 59.3401 205.224 59.3528C205.218 59.3545 205.224 59.3924 205.222 59.3938C205.172 59.4391 205.196 59.3466 205.186 59.33C205.148 59.2699 205.125 59.2379 205.06 59.2662C205.045 59.2727 205.002 59.4059 204.975 59.4137C204.94 59.4236 204.953 59.3758 204.916 59.3874C204.913 59.3884 204.914 59.4178 204.891 59.4165C204.785 59.4109 204.67 59.3937 204.56 59.3967C204.545 59.397 204.564 59.4437 204.543 59.4449C204.441 59.4504 204.33 59.4487 204.231 59.4268C204.206 59.4213 204.222 59.3886 204.216 59.3789C204.184 59.3201 204.138 59.4055 204.13 59.4071C203.949 59.4482 203.81 59.3709 203.625 59.4077C203.615 59.4098 203.538 59.5014 203.503 59.4229C203.501 59.4176 203.466 59.3373 203.436 59.3922C203.434 59.3957 203.456 59.437 203.418 59.4328C203.381 59.4286 203.321 59.4562 203.27 59.4108C203.254 59.3965 203.216 59.3163 203.168 59.3802C203.164 59.3847 203.09 59.5291 203.063 59.4295C203.059 59.4131 203.064 59.3076 203.006 59.3616C202.995 59.3721 203.015 59.3957 202.986 59.4104C202.942 59.433 202.883 59.4047 202.828 59.4517C202.819 59.4601 202.778 59.5317 202.746 59.4773C202.74 59.4688 202.75 59.4336 202.733 59.4296C202.651 59.4107 202.566 59.4343 202.483 59.4099C202.453 59.4014 202.468 59.3444 202.438 59.3292C202.407 59.3139 202.346 59.2993 202.314 59.3253C202.281 59.3513 202.316 59.442 202.268 59.4493C202.06 59.4808 201.853 59.4276 201.645 59.4198C201.614 59.4187 201.639 59.4511 201.594 59.4517C201.426 59.4542 201.136 59.4846 200.99 59.4156C200.874 59.3603 201.02 59.3183 200.931 59.2958C200.888 59.2851 200.842 59.3906 200.831 59.3939C200.73 59.4276 200.659 59.3809 200.568 59.3952C200.549 59.3982 200.567 59.4409 200.551 59.443C200.496 59.4504 200.439 59.4313 200.386 59.4348C200.363 59.4365 200.367 59.4692 200.346 59.4666C200.294 59.461 200.248 59.4472 200.198 59.4166C200.193 59.4139 200.224 59.3732 200.186 59.3717C200.124 59.3694 200.047 59.3392 199.975 59.3704C199.954 59.3798 199.953 59.4544 199.908 59.4028C199.898 59.3921 199.911 59.3025 199.858 59.3799C199.849 59.3928 199.76 59.4972 199.716 59.4299C199.704 59.4122 199.675 59.3388 199.65 59.3504C199.646 59.3522 199.66 59.3923 199.639 59.3962C199.564 59.4093 199.487 59.405 199.41 59.4176C199.39 59.421 199.42 59.4625 199.39 59.4663C199.306 59.4767 199.202 59.4662 199.12 59.4532C199.09 59.4483 199.111 59.414 199.109 59.4102C199.073 59.3494 199.053 59.4315 199.041 59.4363C198.968 59.465 198.913 59.4264 198.846 59.4366C198.827 59.4393 198.84 59.4785 198.837 59.4819C198.798 59.5161 198.827 59.4458 198.803 59.438C198.735 59.4161 198.659 59.4192 198.591 59.4242C198.566 59.4261 198.594 59.4715 198.571 59.4727C198.438 59.4805 198.299 59.4762 198.168 59.4511C198.143 59.4463 198.159 59.4114 198.154 59.4034C198.119 59.3475 198.067 59.4237 198.055 59.431C198.001 59.4641 197.98 59.4332 197.932 59.439C197.698 59.4677 197.41 59.4472 197.19 59.4346C196.903 59.4183 196.68 59.3851 196.406 59.3937C196.389 59.3942 196.406 59.4407 196.391 59.4417C196.197 59.4529 196.007 59.4348 195.813 59.4482C195.797 59.4492 195.82 59.4933 195.794 59.4964C195.742 59.5031 195.675 59.5007 195.622 59.4866C195.596 59.4799 195.631 59.442 195.605 59.436C195.544 59.4218 195.479 59.4187 195.417 59.4257C195.391 59.4288 195.431 59.4739 195.396 59.4744C195.162 59.4789 194.931 59.4867 194.694 59.4283C194.678 59.4243 194.664 59.3327 194.629 59.3502C194.626 59.3757 194.627 59.4056 194.625 59.4328C194.284 59.4474 193.946 59.4156 193.604 59.4107C193.589 59.4105 193.614 59.4591 193.586 59.4589C193.424 59.4582 193.267 59.4717 193.102 59.4234C193.085 59.4187 193.094 59.3333 193.045 59.3462C193.037 59.3486 192.964 59.36 192.945 59.3785C192.943 59.3813 192.956 59.4212 192.932 59.4223C192.796 59.4284 192.653 59.4193 192.517 59.3949C192.495 59.3909 192.518 59.3485 192.502 59.3452C192.391 59.3227 192.27 59.355 192.164 59.3164C192.093 59.2905 192.12 59.2171 192.082 59.1449C192.076 59.1347 192.032 59.133 192.03 59.091C192.024 58.9853 192.046 58.8696 192.037 58.757C192.035 58.7327 191.976 58.7588 192.011 58.7002C192.013 58.6963 192.056 58.6768 192.067 58.6569C192.074 58.6432 192.061 58.6004 192.076 58.5828C192.091 58.5653 192.107 58.6011 192.132 58.5804C192.157 58.5595 192.146 58.5108 192.195 58.5051ZM205.745 59.1806C205.706 59.1397 205.7 59.2893 205.742 59.2535C205.744 59.2516 205.747 59.1826 205.745 59.1806ZM210.477 59.1569C210.426 59.091 210.391 59.188 210.427 59.2389C210.463 59.2898 210.492 59.1769 210.477 59.1569ZM211.007 59.1088C210.947 59.0568 210.938 59.2688 211.002 59.226C211.005 59.2235 211.01 59.1118 211.007 59.1088ZM192.257 59.1243C192.256 59.1223 192.225 59.1204 192.224 59.1223C192.207 59.1698 192.27 59.1737 192.257 59.1243ZM211.533 59.0564C211.514 59.0277 211.461 59.0608 211.484 59.0965C211.503 59.1251 211.556 59.092 211.533 59.0564ZM203.704 59.021C203.704 59.0187 203.681 59.0167 203.682 59.0293C203.683 59.0699 203.715 59.0584 203.704 59.021ZM212.427 59.0539C212.295 59.0459 212.215 58.8708 212.359 58.8905C212.385 58.8941 212.303 58.9464 212.336 58.9622C212.397 58.9909 212.437 58.881 212.499 58.9399C212.51 58.9507 212.435 59.0548 212.427 59.0542C212.427 59.0541 212.427 59.054 212.427 59.0539ZM205.722 59.0009C205.721 58.999 205.69 58.9971 205.689 58.999C205.672 59.0465 205.735 59.0503 205.722 59.0009ZM202.381 58.9285C202.38 58.9243 202.307 58.9203 202.304 58.9242C202.266 59.0018 202.414 59.01 202.381 58.9285ZM207.836 58.8915C207.87 58.8437 207.911 58.8381 207.939 58.8981C207.905 58.8949 207.87 58.8944 207.836 58.8915Z" fill="#030C35"/>
<path d="M213.468 140V139.388L216.96 135.968C217.28 135.656 217.52 135.384 217.68 135.152C217.84 134.912 217.948 134.688 218.004 134.48C218.06 134.272 218.088 134.076 218.088 133.892C218.088 133.404 217.92 133.02 217.584 132.74C217.256 132.46 216.768 132.32 216.12 132.32C215.624 132.32 215.184 132.396 214.8 132.548C214.424 132.7 214.1 132.936 213.828 133.256L213.216 132.728C213.544 132.344 213.964 132.048 214.476 131.84C214.988 131.632 215.56 131.528 216.192 131.528C216.76 131.528 217.252 131.62 217.668 131.804C218.084 131.98 218.404 132.24 218.628 132.584C218.86 132.928 218.976 133.332 218.976 133.796C218.976 134.068 218.936 134.336 218.856 134.6C218.784 134.864 218.648 135.144 218.448 135.44C218.256 135.728 217.972 136.056 217.596 136.424L214.392 139.568L214.152 139.232H219.36V140H213.468ZM223.769 140.072C223.121 140.072 222.545 139.904 222.041 139.568C221.537 139.224 221.141 138.736 220.853 138.104C220.565 137.464 220.421 136.696 220.421 135.8C220.421 134.904 220.565 134.14 220.853 133.508C221.141 132.868 221.537 132.38 222.041 132.044C222.545 131.7 223.121 131.528 223.769 131.528C224.417 131.528 224.993 131.7 225.497 132.044C226.001 132.38 226.397 132.868 226.685 133.508C226.981 134.14 227.129 134.904 227.129 135.8C227.129 136.696 226.981 137.464 226.685 138.104C226.397 138.736 226.001 139.224 225.497 139.568C224.993 139.904 224.417 140.072 223.769 140.072ZM223.769 139.28C224.265 139.28 224.697 139.148 225.065 138.884C225.433 138.612 225.721 138.22 225.929 137.708C226.137 137.188 226.241 136.552 226.241 135.8C226.241 135.048 226.137 134.416 225.929 133.904C225.721 133.384 225.433 132.992 225.065 132.728C224.697 132.456 224.265 132.32 223.769 132.32C223.289 132.32 222.861 132.456 222.485 132.728C222.109 132.992 221.817 133.384 221.609 133.904C221.401 134.416 221.297 135.048 221.297 135.8C221.297 136.552 221.401 137.188 221.609 137.708C221.817 138.22 222.109 138.612 222.485 138.884C222.861 139.148 223.289 139.28 223.769 139.28ZM231.714 140.072C231.066 140.072 230.49 139.904 229.986 139.568C229.482 139.224 229.086 138.736 228.798 138.104C228.51 137.464 228.366 136.696 228.366 135.8C228.366 134.904 228.51 134.14 228.798 133.508C229.086 132.868 229.482 132.38 229.986 132.044C230.49 131.7 231.066 131.528 231.714 131.528C232.362 131.528 232.938 131.7 233.442 132.044C233.946 132.38 234.342 132.868 234.63 133.508C234.926 134.14 235.074 134.904 235.074 135.8C235.074 136.696 234.926 137.464 234.63 138.104C234.342 138.736 233.946 139.224 233.442 139.568C232.938 139.904 232.362 140.072 231.714 140.072ZM231.714 139.28C232.21 139.28 232.642 139.148 233.01 138.884C233.378 138.612 233.666 138.22 233.874 137.708C234.082 137.188 234.186 136.552 234.186 135.8C234.186 135.048 234.082 134.416 233.874 133.904C233.666 133.384 233.378 132.992 233.01 132.728C232.642 132.456 232.21 132.32 231.714 132.32C231.234 132.32 230.806 132.456 230.43 132.728C230.054 132.992 229.762 133.384 229.554 133.904C229.346 134.416 229.242 135.048 229.242 135.8C229.242 136.552 229.346 137.188 229.554 137.708C229.762 138.22 230.054 138.612 230.43 138.884C230.806 139.148 231.234 139.28 231.714 139.28ZM239.66 140.072C239.012 140.072 238.436 139.904 237.932 139.568C237.428 139.224 237.032 138.736 236.744 138.104C236.456 137.464 236.312 136.696 236.312 135.8C236.312 134.904 236.456 134.14 236.744 133.508C237.032 132.868 237.428 132.38 237.932 132.044C238.436 131.7 239.012 131.528 239.66 131.528C240.308 131.528 240.884 131.7 241.388 132.044C241.892 132.38 242.288 132.868 242.576 133.508C242.872 134.14 243.02 134.904 243.02 135.8C243.02 136.696 242.872 137.464 242.576 138.104C242.288 138.736 241.892 139.224 241.388 139.568C240.884 139.904 240.308 140.072 239.66 140.072ZM239.66 139.28C240.156 139.28 240.588 139.148 240.956 138.884C241.324 138.612 241.612 138.22 241.82 137.708C242.028 137.188 242.132 136.552 242.132 135.8C242.132 135.048 242.028 134.416 241.82 133.904C241.612 133.384 241.324 132.992 240.956 132.728C240.588 132.456 240.156 132.32 239.66 132.32C239.18 132.32 238.752 132.456 238.376 132.728C238 132.992 237.708 133.384 237.5 133.904C237.292 134.416 237.188 135.048 237.188 135.8C237.188 136.552 237.292 137.188 237.5 137.708C237.708 138.22 238 138.612 238.376 138.884C238.752 139.148 239.18 139.28 239.66 139.28ZM245.001 140V131.6H245.889V139.232H250.593V140H245.001Z" fill="#030C35"/>
<path d="M216.816 63.072C216.144 63.072 215.564 62.976 215.076 62.784C214.596 62.592 214.224 62.316 213.96 61.956C213.704 61.588 213.576 61.156 213.576 60.66C213.576 60.18 213.7 59.772 213.948 59.436C214.204 59.092 214.572 58.828 215.052 58.644C215.54 58.46 216.128 58.368 216.816 58.368C217.496 58.368 218.08 58.46 218.568 58.644C219.056 58.828 219.428 59.092 219.684 59.436C219.948 59.772 220.08 60.18 220.08 60.66C220.08 61.156 219.948 61.588 219.684 61.956C219.42 62.316 219.044 62.592 218.556 62.784C218.068 62.976 217.488 63.072 216.816 63.072ZM216.816 62.34C217.56 62.34 218.14 62.188 218.556 61.884C218.98 61.58 219.192 61.168 219.192 60.648C219.192 60.128 218.98 59.72 218.556 59.424C218.14 59.12 217.56 58.968 216.816 58.968C216.072 58.968 215.492 59.12 215.076 59.424C214.66 59.72 214.452 60.128 214.452 60.648C214.452 61.168 214.66 61.58 215.076 61.884C215.492 62.188 216.072 62.34 216.816 62.34ZM216.816 58.86C216.192 58.86 215.66 58.776 215.22 58.608C214.788 58.44 214.456 58.2 214.224 57.888C213.992 57.568 213.876 57.188 213.876 56.748C213.876 56.284 213.996 55.888 214.236 55.56C214.484 55.224 214.828 54.968 215.268 54.792C215.708 54.616 216.224 54.528 216.816 54.528C217.408 54.528 217.924 54.616 218.364 54.792C218.812 54.968 219.16 55.224 219.408 55.56C219.656 55.888 219.78 56.284 219.78 56.748C219.78 57.188 219.664 57.568 219.432 57.888C219.2 58.2 218.86 58.44 218.412 58.608C217.972 58.776 217.44 58.86 216.816 58.86ZM216.816 58.284C217.472 58.284 217.984 58.148 218.352 57.876C218.72 57.604 218.904 57.24 218.904 56.784C218.904 56.304 218.712 55.932 218.328 55.668C217.952 55.396 217.448 55.26 216.816 55.26C216.184 55.26 215.68 55.396 215.304 55.668C214.928 55.932 214.74 56.3 214.74 56.772C214.74 57.236 214.92 57.604 215.28 57.876C215.648 58.148 216.16 58.284 216.816 58.284ZM224.624 63.072C223.976 63.072 223.4 62.904 222.896 62.568C222.392 62.224 221.996 61.736 221.708 61.104C221.42 60.464 221.276 59.696 221.276 58.8C221.276 57.904 221.42 57.14 221.708 56.508C221.996 55.868 222.392 55.38 222.896 55.044C223.4 54.7 223.976 54.528 224.624 54.528C225.272 54.528 225.848 54.7 226.352 55.044C226.856 55.38 227.252 55.868 227.54 56.508C227.836 57.14 227.984 57.904 227.984 58.8C227.984 59.696 227.836 60.464 227.54 61.104C227.252 61.736 226.856 62.224 226.352 62.568C225.848 62.904 225.272 63.072 224.624 63.072ZM224.624 62.28C225.12 62.28 225.552 62.148 225.92 61.884C226.288 61.612 226.576 61.22 226.784 60.708C226.992 60.188 227.096 59.552 227.096 58.8C227.096 58.048 226.992 57.416 226.784 56.904C226.576 56.384 226.288 55.992 225.92 55.728C225.552 55.456 225.12 55.32 224.624 55.32C224.144 55.32 223.716 55.456 223.34 55.728C222.964 55.992 222.672 56.384 222.464 56.904C222.256 57.416 222.152 58.048 222.152 58.8C222.152 59.552 222.256 60.188 222.464 60.708C222.672 61.22 222.964 61.612 223.34 61.884C223.716 62.148 224.144 62.28 224.624 62.28ZM232.57 63.072C231.922 63.072 231.346 62.904 230.842 62.568C230.338 62.224 229.942 61.736 229.654 61.104C229.366 60.464 229.222 59.696 229.222 58.8C229.222 57.904 229.366 57.14 229.654 56.508C229.942 55.868 230.338 55.38 230.842 55.044C231.346 54.7 231.922 54.528 232.57 54.528C233.218 54.528 233.794 54.7 234.298 55.044C234.802 55.38 235.198 55.868 235.486 56.508C235.782 57.14 235.93 57.904 235.93 58.8C235.93 59.696 235.782 60.464 235.486 61.104C235.198 61.736 234.802 62.224 234.298 62.568C233.794 62.904 233.218 63.072 232.57 63.072ZM232.57 62.28C233.066 62.28 233.498 62.148 233.866 61.884C234.234 61.612 234.522 61.22 234.73 60.708C234.938 60.188 235.042 59.552 235.042 58.8C235.042 58.048 234.938 57.416 234.73 56.904C234.522 56.384 234.234 55.992 233.866 55.728C233.498 55.456 233.066 55.32 232.57 55.32C232.09 55.32 231.662 55.456 231.286 55.728C230.91 55.992 230.618 56.384 230.41 56.904C230.202 57.416 230.098 58.048 230.098 58.8C230.098 59.552 230.202 60.188 230.41 60.708C230.618 61.22 230.91 61.612 231.286 61.884C231.662 62.148 232.09 62.28 232.57 62.28ZM240.515 63.072C239.867 63.072 239.291 62.904 238.787 62.568C238.283 62.224 237.887 61.736 237.599 61.104C237.311 60.464 237.167 59.696 237.167 58.8C237.167 57.904 237.311 57.14 237.599 56.508C237.887 55.868 238.283 55.38 238.787 55.044C239.291 54.7 239.867 54.528 240.515 54.528C241.163 54.528 241.739 54.7 242.243 55.044C242.747 55.38 243.143 55.868 243.431 56.508C243.727 57.14 243.875 57.904 243.875 58.8C243.875 59.696 243.727 60.464 243.431 61.104C243.143 61.736 242.747 62.224 242.243 62.568C241.739 62.904 241.163 63.072 240.515 63.072ZM240.515 62.28C241.011 62.28 241.443 62.148 241.811 61.884C242.179 61.612 242.467 61.22 242.675 60.708C242.883 60.188 242.987 59.552 242.987 58.8C242.987 58.048 242.883 57.416 242.675 56.904C242.467 56.384 242.179 55.992 241.811 55.728C241.443 55.456 241.011 55.32 240.515 55.32C240.035 55.32 239.607 55.456 239.231 55.728C238.855 55.992 238.563 56.384 238.355 56.904C238.147 57.416 238.043 58.048 238.043 58.8C238.043 59.552 238.147 60.188 238.355 60.708C238.563 61.22 238.855 61.612 239.231 61.884C239.607 62.148 240.035 62.28 240.515 62.28ZM245.856 63V54.6H246.744V62.232H251.448V63H245.856Z" fill="#030C35"/>
</svg>
